<svg xmlns="http://www.w3.org/2000/svg" xmlns:xlink="http://www.w3.org/1999/xlink" id="body_67" preserveAspectRatio="xMinYMin meet" viewBox="0 0 960 720"><defs><clipPath id="1"><path d="M0 540L0 0L0 0L720 0L720 0L720 540L720 540L0 540z" /></clipPath><clipPath id="2"><path d="M0 539.9999L720 539.9999L720 539.9999L720 -0.0001220703L720 -0.0001220703L0 -0.0001220703z" /></clipPath><clipPath id="3"><path d="M0 539.9998L720 539.9998L720 539.9998L720 -0.0001831055L720 -0.0001831055L0 -0.0001831055z" /></clipPath><clipPath id="4"><path d="M0 539.9998L720 539.9998L720 539.9998L720 -0.0002441406L720 -0.0002441406L0 -0.0002441406z" /></clipPath><clipPath id="5"><path d="M-2.35E-07 539.9998L720 539.9998L720 539.9998L720 -0.0001831055L720 -0.0001831055L-2.35E-07 -0.0001831055z" /></clipPath><clipPath id="6"><path d="M-2.8E-07 0L720 0L720 0L720 539.9999L720 539.9999L-2.8E-07 539.9999" /></clipPath><clipPath id="7"><path d="M-2.8E-07 0L720 0L720 0L720 539.9999L720 539.9999L-2.8E-07 539.9999" /></clipPath></defs><g transform="matrix(1.333333 0 0 1.333333 0 0)"><g><g clip-path="url(#1)"><g clip-path="url(#2)"><path transform="matrix(1 0 0 -1 0 540)" d="M0 6.104E-06L720 6.104E-06L720 6.104E-06L720 540L720 540L0 540z" stroke="none" fill="#FFFFFF" fill-rule="evenodd" /></g><g clip-path="url(#3)"><g transform="matrix(0.3035357 0 0 0.3035371 -0.02252 22.07697)"><g transform="matrix(1 0 0 1 0 0)"><image x="0" y="0" xlink:href="img_01.png" width="84" height="1620" /></g></g></g><g clip-path="url(#4)"><path transform="matrix(1 0 0 -1 0 540)" d="M0 -1.4172L22.677 -1.4172L22.677 -1.4172L22.677 540.0028L22.677 540.0028L0 540.0028z" stroke="none" fill="#9BBB59" fill-rule="evenodd" fill-opacity="0.6901961" /></g><path transform="matrix(1 0 0 -1 0 540)" d="M36.814 464.99L694.45 463.68" stroke="#98B954" stroke-width="3" fill="none" /><path transform="matrix(1 0 0 -1 0 540)" d="M115.8 400.41L131.88 400.41L131.88 400.41L131.88 401.13L131.88 401.13L115.8 401.13z" stroke="none" fill="#000000" fill-rule="evenodd" /><path transform="matrix(1 0 0 -1 0 540)" d="M179.76 400.41L195.84 400.41L195.84 400.41L195.84 401.13L195.84 401.13L179.76 401.13z" stroke="none" fill="#000000" fill-rule="evenodd" /><path transform="matrix(1 0 0 -1 0 540)" d="M243.84 400.41L259.8 400.41L259.8 400.41L259.8 401.13L259.8 401.13L243.84 401.13z" stroke="none" fill="#000000" fill-rule="evenodd" /><path transform="matrix(1 0 0 -1 0 540)" d="M435.72 400.41L451.68 400.41L451.68 400.41L451.68 401.13L451.68 401.13L435.72 401.13z" stroke="none" fill="#000000" fill-rule="evenodd" /><path transform="matrix(1 0 0 -1 0 540)" d="M499.68 400.41L515.64 400.41L515.64 400.41L515.64 401.13L515.64 401.13L499.68 401.13z" stroke="none" fill="#000000" fill-rule="evenodd" /><path transform="matrix(1 0 0 -1 0 540)" d="M115.8 381.21L131.88 381.21L131.88 381.21L131.88 381.93L131.88 381.93L115.8 381.93z" stroke="none" fill="#000000" fill-rule="evenodd" /><path transform="matrix(1 0 0 -1 0 540)" d="M180.12 381.21L196.2 381.21L196.2 381.21L196.2 381.93L196.2 381.93L180.12 381.93z" stroke="none" fill="#000000" fill-rule="evenodd" /><g clip-path="url(#5)"><g transform="matrix(0.3274028 0 0 0.3252933 38.445 116.913)"><g transform="matrix(1 0 0 1 0 0)"><image x="0" y="0" xlink:href="img_03.png" width="72" height="75" /></g></g></g><path transform="matrix(1 0 0 -1 0 540)" d="M74.7 330.36C 74.7 340.86 83.215 349.38 93.718 349.38L93.718 349.38L622.61 349.38C 633.11 349.38 641.63 340.86 641.63 330.36L641.63 330.36L641.63 96.241C 641.63 85.737 633.11 77.223 622.61 77.223L622.61 77.223L93.718 77.223C 83.215 77.223 74.7 85.737 74.7 96.241z" stroke="#9BBB59" stroke-width="2.75" fill="none" /><g clip-path="url(#6)"><path transform="matrix(1 0 0 -1 0 540)" d="M65.164 355.05L73.668 349.38L73.668 349.38L65.164 343.71z" stroke="none" fill="#8064A2" fill-rule="evenodd" /></g><g clip-path="url(#7)"><path transform="matrix(1 0 0 -1 0 540)" d="M65.164 355.05L73.668 349.38L73.668 349.38L65.164 343.71z" stroke="#5C4776" stroke-width="2" fill="none" /></g></g></g></g></svg>