<svg xmlns="http://www.w3.org/2000/svg" xmlns:xlink="http://www.w3.org/1999/xlink" id="body_83" preserveAspectRatio="xMinYMin meet" viewBox="0 0 960 720"><defs><clipPath id="1"><path d="M0 540L0 0L0 0L720 0L720 0L720 540L720 540L0 540z" /></clipPath><clipPath id="2"><path d="M0 539.9999L720 539.9999L720 539.9999L720 -0.0001220703L720 -0.0001220703L0 -0.0001220703z" /></clipPath><clipPath id="3"><path d="M0 539.9998L720 539.9998L720 539.9998L720 -0.0001831055L720 -0.0001831055L0 -0.0001831055z" /></clipPath><clipPath id="4"><path d="M0 539.9998L720 539.9998L720 539.9998L720 -0.0002441406L720 -0.0002441406L0 -0.0002441406z" /></clipPath><clipPath id="5"><path d="M8.87E-07 0L720 0L720 0L720 539.9999L720 539.9999L8.87E-07 539.9999" /></clipPath><clipPath id="6"><path d="M-9.3E-08 0L720 0L720 0L720 539.9998L720 539.9998L-9.3E-08 539.9998" /></clipPath><clipPath id="7"><path d="M-1.135E-06 0L720 0L720 0L720 539.9999L720 539.9999L-1.135E-06 539.9999" /></clipPath><clipPath id="8"><path d="M-1.692E-06 539.9998L720 539.9998L720 539.9998L720 -0.0001831055L720 -0.0001831055L-1.692E-06 -0.0001831055z" /></clipPath><clipPath id="9"><path d="M370.09 229.42L383.0906 229.42L383.0906 229.42L383.0906 189.4196L383.0906 189.4196L370.09 189.4196z" /></clipPath><clipPath id="10"><path d="M-1.27E-07 539.9998L720 539.9998L720 539.9998L720 -0.0001831055L720 -0.0001831055L-1.27E-07 -0.0001831055z" /></clipPath><clipPath id="11"><path d="M245.36 405.86L258.3606 405.86L258.3606 405.86L258.3606 365.8596L258.3606 365.8596L245.36 365.8596z" /></clipPath></defs><g transform="matrix(1.333333 0 0 1.333333 0 0)"><g><g clip-path="url(#1)"><g clip-path="url(#2)"><path transform="matrix(1 0 0 -1 0 540)" d="M0 6.104E-06L720 6.104E-06L720 6.104E-06L720 540L720 540L0 540z" stroke="none" fill="#FFFFFF" fill-rule="evenodd" /></g><path transform="matrix(1 0 0 -1 0 540)" d="M66.208 274.47C 66.208 284.93 74.688 293.41 85.15 293.41L85.15 293.41L660.41 293.41C 670.87 293.41 679.35 284.93 679.35 274.47L679.35 274.47L679.35 73.485C 679.35 63.024 670.87 54.543 660.41 54.543L660.41 54.543L85.15 54.543C 74.688 54.543 66.208 63.024 66.208 73.485z" stroke="none" fill="#D7E4BD" fill-rule="evenodd" /><path transform="matrix(1 0 0 -1 0 540)" d="M66.208 274.47C 66.208 284.93 74.688 293.41 85.15 293.41L85.15 293.41L660.41 293.41C 670.87 293.41 679.35 284.93 679.35 274.47L679.35 274.47L679.35 73.485C 679.35 63.024 670.87 54.543 660.41 54.543L660.41 54.543L85.15 54.543C 74.688 54.543 66.208 63.024 66.208 73.485z" stroke="#77933C" stroke-width="2" fill="none" /><g clip-path="url(#3)"><g transform="matrix(0.3035357 0 0 0.3035371 -0.02252 22.07697)"><g transform="matrix(1 0 0 1 0 0)"><image x="0" y="0" xlink:href="img_01.png" width="84" height="1620" /></g></g></g><g clip-path="url(#4)"><path transform="matrix(1 0 0 -1 0 540)" d="M0 -1.4172L22.677 -1.4172L22.677 -1.4172L22.677 540.0028L22.677 540.0028L0 540.0028z" stroke="none" fill="#9BBB59" fill-rule="evenodd" fill-opacity="0.6901961" /></g><path transform="matrix(1 0 0 -1 0 540)" d="M36.814 464.99L694.45 463.68" stroke="#98B954" stroke-width="3" fill="none" /><path transform="matrix(1 0 0 -1 0 540)" d="M473.07 180.9L479.07 177.9L479.07 177.9L473.07 174.9zM379.86 178.65L474.07 178.65L474.07 178.65L474.07 177.15L474.07 177.15L379.86 177.15z" stroke="none" fill="#4A7EBB" fill-rule="winding" /><path transform="matrix(1 0 0 -1 0 540)" d="M166.09 180.9L160.09 177.9L160.09 177.9L166.09 174.9zM259.3 178.65L165.09 178.65L165.09 178.65L165.09 177.15L165.09 177.15L259.3 177.15z" stroke="none" fill="#4A7EBB" fill-rule="winding" /><path transform="matrix(1 0 0 -1 0 540)" d="M303.32 220.41L331.67 220.41L331.67 220.41L331.67 163.72L331.67 163.72L360.01 163.72L360.01 163.72L360.01 135.38L360.01 135.38L303.32 135.38z" stroke="none" fill="#4F81BD" fill-rule="evenodd" /><path transform="matrix(1 0 0 -1 0 540)" d="M303.32 220.41L331.67 220.41L331.67 220.41L331.67 163.72L331.67 163.72L360.01 163.72L360.01 163.72L360.01 135.38L360.01 135.38L303.32 135.38z" stroke="#385D8A" stroke-width="2" fill="none" /><path transform="matrix(1 0 0 -1 0 540)" d="M297.81 142.42L294.81 136.42L294.81 136.42L291.81 142.42zM291.81 215.46L294.81 221.46L294.81 221.46L297.81 215.46zM295.18 216.46L295.18 141.42L295.18 141.42L294.43 141.42L294.43 141.42L294.43 216.46z" stroke="none" fill="#7F7F7F" fill-rule="winding" /><g clip-path="url(#5)"><path transform="matrix(1 0 0 -1 0 540)" d="M309.32 123.53L303.32 126.53L303.32 126.53L309.32 129.53zM354.01 129.53L360.01 126.53L360.01 126.53L354.01 123.53zM355.01 126.16L308.32 126.16L308.32 126.16L308.32 126.91L308.32 126.91L355.01 126.91z" stroke="none" fill="#7F7F7F" fill-rule="winding" /></g><path transform="matrix(1 0 0 -1 0 540)" d="M524.44 262.93L581.13 262.93L581.13 262.93L581.13 149.55L581.13 149.55L637.83 149.55L637.83 149.55L637.83 92.856L637.83 92.856L524.44 92.856z" stroke="none" fill="#4F81BD" fill-rule="evenodd" /><path transform="matrix(1 0 0 -1 0 540)" d="M524.44 262.93L581.13 262.93L581.13 262.93L581.13 149.55L581.13 149.55L637.83 149.55L637.83 149.55L637.83 92.856L637.83 92.856L524.44 92.856z" stroke="#385D8A" stroke-width="2" fill="none" /><path transform="matrix(1 0 0 -1 0 540)" d="M518.54 98.009L515.54 92.009L515.54 92.009L512.54 98.009zM512.54 256.09L515.54 262.09L515.54 262.09L518.54 256.09zM515.91 257.09L515.91 97.008L515.91 97.008L515.16 97.008L515.16 97.008L515.16 257.09z" stroke="none" fill="#7F7F7F" fill-rule="winding" /><g clip-path="url(#6)"><path transform="matrix(1 0 0 -1 0 540)" d="M530.44 81.843L524.44 84.843L524.44 84.843L530.44 87.843zM631.83 87.843L637.83 84.843L637.83 84.843L631.83 81.843zM632.83 84.468L529.44 84.468L529.44 84.468L529.44 85.218L529.44 85.218L632.83 85.218z" stroke="none" fill="#7F7F7F" fill-rule="winding" /></g><path transform="matrix(1 0 0 -1 0 540)" d="M119.04 199.16L133.22 199.16L133.22 199.16L133.22 170.81L133.22 170.81L147.39 170.81L147.39 170.81L147.39 156.64L147.39 156.64L119.04 156.64z" stroke="none" fill="#4F81BD" fill-rule="evenodd" /><path transform="matrix(1 0 0 -1 0 540)" d="M119.04 199.16L133.22 199.16L133.22 199.16L133.22 170.81L133.22 170.81L147.39 170.81L147.39 170.81L147.39 156.64L147.39 156.64L119.04 156.64z" stroke="#385D8A" stroke-width="2" fill="none" /><path transform="matrix(1 0 0 -1 0 540)" d="M115.18 163.96L112.18 157.96L112.18 157.96L109.18 163.96zM109.18 194.48L112.18 200.48L112.18 200.48L115.18 194.48zM112.55 195.48L112.56 162.96L112.56 162.96L111.81 162.96L111.81 162.96L111.8 195.48z" stroke="none" fill="#7F7F7F" fill-rule="winding" /><g clip-path="url(#7)"><path transform="matrix(1 0 0 -1 0 540)" d="M125.32 146.41L119.32 149.41L119.32 149.41L125.32 152.41zM141.67 152.41L147.67 149.41L147.67 149.41L141.67 146.41zM142.67 149.04L124.32 149.04L124.32 149.04L124.32 149.79L124.32 149.79L142.67 149.79z" stroke="none" fill="#7F7F7F" fill-rule="winding" /></g><g clip-path="url(#8)"><g clip-path="url(#9)"><path transform="matrix(1 0 0 -1 0 540)" d="M372.0922 329.588L381.1005 329.588" stroke="#000000" stroke-width="0.5007463" fill="none" /></g></g><g clip-path="url(#10)"><g clip-path="url(#11)"><path transform="matrix(1 0 0 -1 0 540)" d="M247.3622 153.148L256.3705 153.148" stroke="#000000" stroke-width="0.5007463" fill="none" /></g></g></g></g></g></svg>