<svg xmlns="http://www.w3.org/2000/svg" xmlns:xlink="http://www.w3.org/1999/xlink" id="body_58" preserveAspectRatio="xMinYMin meet" viewBox="0 0 960 720"><defs><clipPath id="1"><path d="M0 540L0 0L0 0L720 0L720 0L720 540L720 540L0 540z" /></clipPath><clipPath id="2"><path d="M0 539.9999L720 539.9999L720 539.9999L720 -0.0001220703L720 -0.0001220703L0 -0.0001220703z" /></clipPath><clipPath id="3"><path d="M0 539.9998L720 539.9998L720 539.9998L720 -0.0001831055L720 -0.0001831055L0 -0.0001831055z" /></clipPath><clipPath id="4"><path d="M0 539.9998L720 539.9998L720 539.9998L720 -0.0002441406L720 -0.0002441406L0 -0.0002441406z" /></clipPath><clipPath id="5"><path d="M-2.35E-07 539.9998L720 539.9998L720 539.9998L720 -0.0001831055L720 -0.0001831055L-2.35E-07 -0.0001831055z" /></clipPath><clipPath id="6"><path d="M-9.65E-07 539.9998L720 539.9998L720 539.9998L720 -0.0001831055L720 -0.0001831055L-9.65E-07 -0.0001831055z" /></clipPath><clipPath id="7"><path d="M111.05 362.44L220.0533 362.44L220.0533 362.44L220.0533 275.4437L220.0533 275.4437L111.05 275.4437z" /></clipPath><clipPath id="8"><path d="M-9.65E-07 539.9998L720 539.9998L720 539.9998L720 -0.0001831055L720 -0.0001831055L-9.65E-07 -0.0001831055z" /></clipPath><clipPath id="9"><path d="M111.05 460.791L222.0514 460.791L222.0514 460.791L222.0514 374.7951L222.0514 374.7951L111.05 374.7951z" /></clipPath><clipPath id="10"><path d="M-6.5E-07 539.9998L720 539.9998L720 539.9998L720 -0.0001831055L720 -0.0001831055L-6.5E-07 -0.0001831055z" /></clipPath><clipPath id="11"><path d="M457.43 411.51L579.4283 411.51L579.4283 411.51L579.4283 394.5094L579.4283 394.5094L457.43 394.5094z" /></clipPath></defs><g transform="matrix(1.333333 0 0 1.333333 0 0)"><g><g clip-path="url(#1)"><g clip-path="url(#2)"><path transform="matrix(1 0 0 -1 0 540)" d="M0 6.104E-06L720 6.104E-06L720 6.104E-06L720 540L720 540L0 540z" stroke="none" fill="#FFFFFF" fill-rule="evenodd" /></g><g clip-path="url(#3)"><g transform="matrix(0.3035357 0 0 0.3035371 -0.02252 22.07697)"><g transform="matrix(1 0 0 1 0 0)"><image x="0" y="0" xlink:href="img_01.png" width="84" height="1620" /></g></g></g><g clip-path="url(#4)"><path transform="matrix(1 0 0 -1 0 540)" d="M0 -1.4172L22.677 -1.4172L22.677 -1.4172L22.677 540.0028L22.677 540.0028L0 540.0028z" stroke="none" fill="#9BBB59" fill-rule="evenodd" fill-opacity="0.6901961" /></g><path transform="matrix(1 0 0 -1 0 540)" d="M36.814 464.99L694.45 463.68" stroke="#98B954" stroke-width="3" fill="none" /><g clip-path="url(#5)"><g transform="matrix(0.3274028 0 0 0.3252933 38.445 230.313)"><g transform="matrix(1 0 0 1 0 0)"><image x="0" y="0" xlink:href="img_03.png" width="72" height="75" /></g></g></g><path transform="matrix(1 0 0 -1 0 540)" d="M73.731 257.28C 73.731 264.98 79.971 271.22 87.667 271.22L87.667 271.22L642.4 271.22C 650.09 271.22 656.33 264.98 656.33 257.28L656.33 257.28L656.33 85.718C 656.33 78.021 650.09 71.781 642.4 71.781L642.4 71.781L87.667 71.781C 79.971 71.781 73.731 78.021 73.731 85.718z" stroke="#9BBB59" stroke-width="2.75" fill="none" /><g clip-path="url(#6)"><g clip-path="url(#7)"><path transform="matrix(1 0 0 -1 0 540)" d="M113.05 220.564L122.5499 220.564" stroke="#000000" stroke-width="0.5000054" fill="none" /><path transform="matrix(1 0 0 -1 0 540)" d="M139.5496 220.564L148.5503 220.564" stroke="#000000" stroke-width="0.5000054" fill="none" /></g></g><g clip-path="url(#8)"><g clip-path="url(#9)"><path transform="matrix(1 0 0 -1 0 540)" d="M113.0499 122.2051L122.5499 122.2051" stroke="#000000" stroke-width="0.4999796" fill="none" /><path transform="matrix(1 0 0 -1 0 540)" d="M139.5506 122.2051L147.5508 122.2051" stroke="#000000" stroke-width="0.4999796" fill="none" /></g></g><path transform="matrix(1 0 0 -1 0 540)" d="M332.49 181.17L404.51 181.17" stroke="#000000" stroke-width="0.75" fill="none" /><g clip-path="url(#10)"><g clip-path="url(#11)"></g></g><path transform="matrix(1 0 0 -1 0 540)" d="M325.65 227.57L331.65 224.57L331.65 224.57L325.65 221.57zM308.97 224.95L326.65 224.95L326.65 224.95L326.65 224.2L326.65 224.2L308.97 224.2z" stroke="none" fill="#404040" fill-rule="winding" /><path transform="matrix(1 0 0 -1 0 540)" d="M325.65 200.78L331.65 197.78L331.65 197.78L325.65 194.78zM308.97 198.16L326.65 198.16L326.65 198.16L326.65 197.41L326.65 197.41L308.97 197.41z" stroke="none" fill="#404040" fill-rule="winding" /><path transform="matrix(1 0 0 -1 0 540)" d="M451.56 182.72L523.58 182.72" stroke="#000000" stroke-width="0.75" fill="none" /><path transform="matrix(1 0 0 -1 0 540)" d="M433.38 212.41L439.38 209.41L439.38 209.41L433.38 206.41zM416.7 209.79L434.38 209.79L434.38 209.79L434.38 209.04L434.38 209.04L416.7 209.04z" stroke="none" fill="#404040" fill-rule="winding" /><path transform="matrix(1 0 0 -1 0 540)" d="M251.37 270.21L251.37 71.781" stroke="#98B954" stroke-width="0.75" fill="none" /></g></g></g></svg>