<svg xmlns="http://www.w3.org/2000/svg" xmlns:xlink="http://www.w3.org/1999/xlink" id="body_41" preserveAspectRatio="xMinYMin meet" viewBox="0 0 960 720"><defs><clipPath id="1"><path d="M0 540L0 0L0 0L720 0L720 0L720 540L720 540L0 540z" /></clipPath><clipPath id="2"><path d="M0 539.9999L720 539.9999L720 539.9999L720 -0.0001220703L720 -0.0001220703L0 -0.0001220703z" /></clipPath><clipPath id="3"><path d="M0 539.9998L720 539.9998L720 539.9998L720 -0.0001831055L720 -0.0001831055L0 -0.0001831055z" /></clipPath><clipPath id="4"><path d="M0 539.9998L720 539.9998L720 539.9998L720 -0.0002441406L720 -0.0002441406L0 -0.0002441406z" /></clipPath><clipPath id="5"><path d="M-2.35E-07 539.9998L720 539.9998L720 539.9998L720 -0.0001831055L720 -0.0001831055L-2.35E-07 -0.0001831055z" /></clipPath><clipPath id="6"><path d="M-2.35E-07 539.9998L720 539.9998L720 539.9998L720 -0.0001831055L720 -0.0001831055L-2.35E-07 -0.0001831055z" /></clipPath><clipPath id="7"><path d="M-4.61E-07 0L720 0L720 0L720 539.9999L720 539.9999L-4.61E-07 539.9999" /></clipPath><clipPath id="8"><path d="M-4.61E-07 0L720 0L720 0L720 539.9999L720 539.9999L-4.61E-07 539.9999" /></clipPath></defs><g transform="matrix(1.333333 0 0 1.333333 0 0)"><g><g clip-path="url(#1)"><g clip-path="url(#2)"><path transform="matrix(1 0 0 -1 0 540)" d="M0 6.104E-06L720 6.104E-06L720 6.104E-06L720 540L720 540L0 540z" stroke="none" fill="#FFFFFF" fill-rule="evenodd" /></g><g clip-path="url(#3)"><g transform="matrix(0.3035357 0 0 0.3035371 -0.02252 22.07697)"><g transform="matrix(1 0 0 1 0 0)"><image x="0" y="0" xlink:href="img_01.png" width="84" height="1620" /></g></g></g><g clip-path="url(#4)"><path transform="matrix(1 0 0 -1 0 540)" d="M0 -1.4172L22.677 -1.4172L22.677 -1.4172L22.677 540.0028L22.677 540.0028L0 540.0028z" stroke="none" fill="#9BBB59" fill-rule="evenodd" fill-opacity="0.6901961" /></g><path transform="matrix(1 0 0 -1 0 540)" d="M36.814 464.99L694.45 463.68" stroke="#98B954" stroke-width="3" fill="none" /><g clip-path="url(#5)"><g transform="matrix(0.3274028 0 0 0.3252933 38.445 116.913)"><g transform="matrix(1 0 0 1 0 0)"><image x="0" y="0" xlink:href="img_03.png" width="72" height="75" /></g></g></g><g clip-path="url(#6)"><g transform="matrix(0.3274028 0 0 0.3252933 38.445 272.513)"><g transform="matrix(1 0 0 1 0 0)"><image x="0" y="0" xlink:href="img_03.png" width="72" height="75" /></g></g></g><path transform="matrix(1 0 0 -1 0 540)" d="M74.7 370.75C 74.7 374.23 77.517 377.04 80.992 377.04L80.992 377.04L635.34 377.04C 638.81 377.04 641.63 374.23 641.63 370.75L641.63 370.75L641.63 293.3C 641.63 289.83 638.81 287.01 635.34 287.01L635.34 287.01L80.992 287.01C 77.517 287.01 74.7 289.83 74.7 293.3z" stroke="#9BBB59" stroke-width="2.75" fill="none" /><path transform="matrix(1 0 0 -1 0 540)" d="M74.7 208C 74.7 214.61 80.053 219.96 86.656 219.96L86.656 219.96L629.67 219.96C 636.28 219.96 641.63 214.61 641.63 208L641.63 208L641.63 60.829C 641.63 54.226 636.28 48.873 629.67 48.873L629.67 48.873L86.656 48.873C 80.053 48.873 74.7 54.226 74.7 60.829z" stroke="#9BBB59" stroke-width="2.75" fill="none" /><g clip-path="url(#7)"><path transform="matrix(1 0 0 -1 0 540)" d="M62.33 224.64L70.834 218.97L70.834 218.97L62.33 213.3z" stroke="none" fill="#8064A2" fill-rule="evenodd" /></g><g clip-path="url(#8)"><path transform="matrix(1 0 0 -1 0 540)" d="M62.33 224.64L70.834 218.97L70.834 218.97L62.33 213.3z" stroke="#5C4776" stroke-width="2" fill="none" /></g></g></g></g></svg>