<svg xmlns="http://www.w3.org/2000/svg" xmlns:xlink="http://www.w3.org/1999/xlink" id="body_1" preserveAspectRatio="xMinYMin meet" viewBox="0 0 960 720"><defs><clipPath id="1"><path d="M0 540L0 0L0 0L720 0L720 0L720 540L720 540L0 540z" /></clipPath><clipPath id="2"><path d="M0 539.9999L720 539.9999L720 539.9999L720 -0.0001220703L720 -0.0001220703L0 -0.0001220703z" /></clipPath><clipPath id="3"><path d="M0 539.9998L720 539.9998L720 539.9998L720 -0.0001831055L720 -0.0001831055L0 -0.0001831055z" /></clipPath><clipPath id="4"><path d="M0 539.9998L720 539.9998L720 539.9998L720 -0.0002441406L720 -0.0002441406L0 -0.0002441406z" /></clipPath><clipPath id="5"><path d="M39.36 177.48L314.4 177.48L314.4 177.48L314.4 95.16L314.4 95.16L39.36 95.16z" /></clipPath><clipPath id="6"><path d="M39.36 201.48L314.4 201.48L314.4 201.48L314.4 119.16L314.4 119.16L39.36 119.16z" /></clipPath><clipPath id="7"><path d="M39.36 225.6L314.4 225.6L314.4 225.6L314.4 143.28L314.4 143.28L39.36 143.28z" /></clipPath><clipPath id="8"><path d="M39.36 249.72L314.4 249.72L314.4 249.72L314.4 167.4L314.4 167.4L39.36 167.4z" /></clipPath><clipPath id="9"><path d="M365.64 177.48L640.6801 177.48L640.6801 177.48L640.6801 95.16L640.6801 95.16L365.64 95.16z" /></clipPath><clipPath id="10"><path d="M365.64 207.36L640.6801 207.36L640.6801 207.36L640.6801 113.28L640.6801 113.28L365.64 113.28z" /></clipPath><clipPath id="11"><path d="M365.64 231.48L640.6801 231.48L640.6801 231.48L640.6801 137.4L640.6801 137.4L365.64 137.4z" /></clipPath><clipPath id="12"><path d="M39.36 461.16L360 461.16L360 461.16L360 367.08L360 367.08L39.36 367.08z" /></clipPath><clipPath id="13"><path d="M39.36 485.28L360 485.28L360 485.28L360 391.2L360 391.2L39.36 391.2z" /></clipPath><clipPath id="14"><path d="M39.36 335.52L345.72 335.52L345.72 335.52L345.72 241.44L345.72 241.44L39.36 241.44z" /></clipPath><clipPath id="15"><path d="M39.36 359.64L345.72 359.64L345.72 359.64L345.72 265.56L345.72 265.56L39.36 265.56z" /></clipPath><clipPath id="16"><path d="M39.36 383.76L345.72 383.76L345.72 383.76L345.72 289.68L345.72 289.68L39.36 289.68z" /></clipPath></defs><g transform="matrix(1.333333 0 0 1.333333 0 0)"><g><g clip-path="url(#1)"><g clip-path="url(#2)"><path transform="matrix(1 0 0 -1 0 540)" d="M0 6.104E-06L720 6.104E-06L720 6.104E-06L720 540L720 540L0 540z" stroke="none" fill="#FFFFFF" fill-rule="evenodd" /></g><path transform="matrix(1 0 0 -1 0 540)" d="M39.418 419.11L334.218 419.11L334.218 419.11L334.218 445.768L334.218 445.768L39.418 445.768z" stroke="none" fill="#8EB4E3" fill-rule="evenodd" /><g clip-path="url(#3)"><g transform="matrix(0.3035357 0 0 0.3035371 -0.02252 22.07697)"><g transform="matrix(1 0 0 1 0 0)"><image x="0" y="0" xlink:href="img_01.png" width="84" height="1620" /></g></g></g><g clip-path="url(#4)"><path transform="matrix(1 0 0 -1 0 540)" d="M0 -1.4172L22.677 -1.4172L22.677 -1.4172L22.677 540.0028L22.677 540.0028L0 540.0028z" stroke="none" fill="#0070C0" fill-rule="evenodd" fill-opacity="0.6901961" /></g><g clip-path="url(#5)"></g><g clip-path="url(#6)"></g><g clip-path="url(#7)"></g><g clip-path="url(#8)"></g><path transform="matrix(1 0 0 -1 0 540)" d="M365.67 419.11L660.47 419.11L660.47 419.11L660.47 445.768L660.47 445.768L365.67 445.768z" stroke="none" fill="#8EB4E3" fill-rule="evenodd" /><g clip-path="url(#9)"></g><g clip-path="url(#10)"></g><g clip-path="url(#11)"></g><path transform="matrix(1 0 0 -1 0 540)" d="M39.418 141.28L334.218 141.28L334.218 141.28L334.218 167.938L334.218 167.938L39.418 167.938z" stroke="none" fill="#8EB4E3" fill-rule="evenodd" /><g clip-path="url(#12)"></g><g clip-path="url(#13)"></g><path transform="matrix(1 0 0 -1 0 540)" d="M39.418 269.08L334.218 269.08L334.218 269.08L334.218 295.738L334.218 295.738L39.418 295.738z" stroke="none" fill="#8EB4E3" fill-rule="evenodd" /><g clip-path="url(#14)"></g><g clip-path="url(#15)"></g><g clip-path="url(#16)"></g><path transform="matrix(1 0 0 -1 0 540)" d="M365.67 269.08L663.3101 269.08L663.3101 269.08L663.3101 295.738L663.3101 295.738L365.67 295.738z" stroke="none" fill="#8EB4E3" fill-rule="evenodd" /><path transform="matrix(1 0 0 -1 0 540)" d="M106.87 460.45L687.98 460.45" stroke="#0070C0" stroke-width="3" fill="none" /></g></g></g></svg>