<svg xmlns="http://www.w3.org/2000/svg" xmlns:xlink="http://www.w3.org/1999/xlink" id="body_71" preserveAspectRatio="xMinYMin meet" viewBox="0 0 960 720"><defs><clipPath id="1"><path d="M0 540L0 0L0 0L720 0L720 0L720 540L720 540L0 540z" /></clipPath><clipPath id="2"><path d="M0 539.9999L720 539.9999L720 539.9999L720 -0.0001220703L720 -0.0001220703L0 -0.0001220703z" /></clipPath><clipPath id="3"><path d="M0 539.9998L720 539.9998L720 539.9998L720 -0.0001831055L720 -0.0001831055L0 -0.0001831055z" /></clipPath><clipPath id="4"><path d="M0 539.9998L720 539.9998L720 539.9998L720 -0.0002441406L720 -0.0002441406L0 -0.0002441406z" /></clipPath><clipPath id="5"><path d="M-4.3E-07 539.9998L720 539.9998L720 539.9998L720 -0.0001831055L720 -0.0001831055L-4.3E-07 -0.0001831055z" /></clipPath><clipPath id="6"><path d="M219.94 180.12L261.9399 180.12L261.9399 180.12L261.9399 140.1196L261.9399 140.1196L219.94 140.1196z" /></clipPath><clipPath id="7"><path d="M-1.745E-06 539.9998L720 539.9998L720 539.9998L720 -0.0001831055L720 -0.0001831055L-1.745E-06 -0.0001831055z" /></clipPath><clipPath id="8"><path d="M365.63 180.12L407.6299 180.12L407.6299 180.12L407.6299 140.1196L407.6299 140.1196L365.63 140.1196z" /></clipPath><clipPath id="9"><path d="M-1.159E-06 539.9998L720 539.9998L720 539.9998L720 -0.0001831055L720 -0.0001831055L-1.159E-06 -0.0001831055z" /></clipPath><clipPath id="10"><path d="M158.76 233.29L224.761 233.29L224.761 233.29L224.761 193.2896L224.761 193.2896L158.76 193.2896z" /></clipPath><clipPath id="11"><path d="M-7.36E-07 539.9998L720 539.9998L720 539.9998L720 -0.0001831055L720 -0.0001831055L-7.36E-07 -0.0001831055z" /></clipPath><clipPath id="12"><path d="M194.26 331.85L235.2595 331.85L235.2595 331.85L235.2595 288.8502L235.2595 288.8502L194.26 288.8502z" /></clipPath><clipPath id="13"><path d="M-3.7E-08 539.9998L720 539.9998L720 539.9998L720 -0.0001831055L720 -0.0001831055L-3.7E-08 -0.0001831055z" /></clipPath><clipPath id="14"><path d="M252.91 330.35L292.9105 330.35L292.9105 330.35L292.9105 290.3496L292.9105 290.3496L252.91 290.3496z" /></clipPath><clipPath id="15"><path d="M-2.401E-06 539.9998L720 539.9998L720 539.9998L720 -0.0001831055L720 -0.0001831055L-2.401E-06 -0.0001831055z" /></clipPath><clipPath id="16"><path d="M310.55 331.85L350.5505 331.85L350.5505 331.85L350.5505 288.8502L350.5505 288.8502L310.55 288.8502z" /></clipPath><clipPath id="17"><path d="M-5.35E-07 539.9998L720 539.9998L720 539.9998L720 -0.0001831055L720 -0.0001831055L-5.35E-07 -0.0001831055z" /></clipPath><clipPath id="18"><path d="M211.11 383.4L278.1101 383.4L278.1101 383.4L278.1101 340.4002L278.1101 340.4002L211.11 340.4002z" /></clipPath></defs><g transform="matrix(1.333333 0 0 1.333333 0 0)"><g><g clip-path="url(#1)"><g clip-path="url(#2)"><path transform="matrix(1 0 0 -1 0 540)" d="M0 6.104E-06L720 6.104E-06L720 6.104E-06L720 540L720 540L0 540z" stroke="none" fill="#FFFFFF" fill-rule="evenodd" /></g><g clip-path="url(#3)"><g transform="matrix(0.3035357 0 0 0.3035371 -0.02252 22.07697)"><g transform="matrix(1 0 0 1 0 0)"><image x="0" y="0" xlink:href="img_01.png" width="84" height="1620" /></g></g></g><g clip-path="url(#4)"><path transform="matrix(1 0 0 -1 0 540)" d="M0 -1.4172L22.677 -1.4172L22.677 -1.4172L22.677 540.0028L22.677 540.0028L0 540.0028z" stroke="none" fill="#9BBB59" fill-rule="evenodd" fill-opacity="0.6901961" /></g><path transform="matrix(1 0 0 -1 0 540)" d="M36.814 464.99L694.45 463.68" stroke="#98B954" stroke-width="3" fill="none" /><g clip-path="url(#5)"><g clip-path="url(#6)"><path transform="matrix(1 0 0 -1 0 540)" d="M221.9399 378.888L231.4389 378.888" stroke="#000000" stroke-width="0.499803" fill="none" /><path transform="matrix(1 0 0 -1 0 540)" d="M248.4364 378.888L259.1854 378.888" stroke="#000000" stroke-width="0.499803" fill="none" /></g></g><g clip-path="url(#7)"><g clip-path="url(#8)"><path transform="matrix(1 0 0 -1 0 540)" d="M367.6299 378.888L377.129 378.888" stroke="#000000" stroke-width="0.499803" fill="none" /><path transform="matrix(1 0 0 -1 0 540)" d="M394.1264 378.888L404.8754 378.888" stroke="#000000" stroke-width="0.499803" fill="none" /></g></g><g clip-path="url(#9)"><g clip-path="url(#10)"><path transform="matrix(1 0 0 -1 0 540)" d="M160.7606 325.718L170.263 325.718" stroke="#000000" stroke-width="0.4997806" fill="none" /><path transform="matrix(1 0 0 -1 0 540)" d="M187.2665 325.718L198.0194 325.718" stroke="#000000" stroke-width="0.4997806" fill="none" /></g></g><g clip-path="url(#11)"><g clip-path="url(#12)"><path transform="matrix(1 0 0 -1 0 540)" d="M196.2607 230.1489L205.7623 230.1489" stroke="#000000" stroke-width="0.5003682" fill="none" /><path transform="matrix(1 0 0 -1 0 540)" d="M222.7652 230.1489L233.0177 230.1489" stroke="#000000" stroke-width="0.5003682" fill="none" /></g></g><g clip-path="url(#13)"><g clip-path="url(#14)"><path transform="matrix(1 0 0 -1 0 540)" d="M254.9094 228.658L264.4078 228.658" stroke="#000000" stroke-width="0.4998482" fill="none" /><path transform="matrix(1 0 0 -1 0 540)" d="M281.4043 228.658L290.1521 228.658" stroke="#000000" stroke-width="0.4998482" fill="none" /></g></g><g clip-path="url(#15)"><g clip-path="url(#16)"><path transform="matrix(1 0 0 -1 0 540)" d="M312.5493 230.1489L322.7972 230.1489" stroke="#000000" stroke-width="0.4998482" fill="none" /><path transform="matrix(1 0 0 -1 0 540)" d="M339.794 230.1489L348.542 230.1489" stroke="#000000" stroke-width="0.4998482" fill="none" /></g></g><g clip-path="url(#17)"><g clip-path="url(#18)"><path transform="matrix(1 0 0 -1 0 540)" d="M213.1102 178.5989L222.6101 178.5989" stroke="#000000" stroke-width="0.4998781" fill="none" /><path transform="matrix(1 0 0 -1 0 540)" d="M239.6107 178.5989L249.8614 178.5989" stroke="#000000" stroke-width="0.4998781" fill="none" /><path transform="matrix(1 0 0 -1 0 540)" d="M266.8614 178.5989L275.6115 178.5989" stroke="#000000" stroke-width="0.4998781" fill="none" /></g></g></g></g></g></svg>