<svg xmlns="http://www.w3.org/2000/svg" xmlns:xlink="http://www.w3.org/1999/xlink" id="body_25" preserveAspectRatio="xMinYMin meet" viewBox="0 0 960 720"><defs><clipPath id="1"><path d="M0 540L0 0L0 0L720 0L720 0L720 540L720 540L0 540z" /></clipPath><clipPath id="2"><path d="M0 539.9999L720 539.9999L720 539.9999L720 -0.0001220703L720 -0.0001220703L0 -0.0001220703z" /></clipPath><clipPath id="3"><path d="M0 539.9998L720 539.9998L720 539.9998L720 -0.0001831055L720 -0.0001831055L0 -0.0001831055z" /></clipPath><clipPath id="4"><path d="M0 539.9998L720 539.9998L720 539.9998L720 -0.0002441406L720 -0.0002441406L0 -0.0002441406z" /></clipPath><clipPath id="5"><path d="M-2.35E-07 539.9998L720 539.9998L720 539.9998L720 -0.0001831055L720 -0.0001831055L-2.35E-07 -0.0001831055z" /></clipPath><clipPath id="6"><path d="M-1.995E-06 539.9998L720 539.9998L720 539.9998L720 -0.0001831055L720 -0.0001831055L-1.995E-06 -0.0001831055z" /></clipPath><clipPath id="7"><path d="M6.4E-08 539.9998L720 539.9998L720 539.9998L720 -0.0001831055L720 -0.0001831055L6.4E-08 -0.0001831055z" /></clipPath><clipPath id="8"><path d="M133.38 326.7L179.3801 326.7L179.3801 326.7L179.3801 222.702L179.3801 222.702L133.38 222.702z" /></clipPath><clipPath id="9"><path d="M-9.1E-08 539.9998L720 539.9998L720 539.9998L720 -0.0001831055L720 -0.0001831055L-9.1E-08 -0.0001831055z" /></clipPath><clipPath id="10"><path d="M120.38 461.25L179.3791 461.25L179.3791 461.25L179.3791 357.252L179.3791 357.252L120.38 357.252z" /></clipPath><clipPath id="11"><path d="M-1.276E-06 539.9998L720 539.9998L720 539.9998L720 -0.0001831055L720 -0.0001831055L-1.276E-06 -0.0001831055z" /></clipPath><clipPath id="12"><path d="M405 326.75L454.9992 326.75L454.9992 326.75L454.9992 222.752L454.9992 222.752L405 222.752z" /></clipPath><clipPath id="13"><path d="M-1.366E-06 539.9998L720 539.9998L720 539.9998L720 -0.0001831055L720 -0.0001831055L-1.366E-06 -0.0001831055z" /></clipPath><clipPath id="14"><path d="M397.38 461.25L464.3801 461.25L464.3801 461.25L464.3801 357.252L464.3801 357.252L397.38 357.252z" /></clipPath></defs><g transform="matrix(1.333333 0 0 1.333333 0 0)"><g><g clip-path="url(#1)"><g clip-path="url(#2)"><path transform="matrix(1 0 0 -1 0 540)" d="M0 6.104E-06L720 6.104E-06L720 6.104E-06L720 540L720 540L0 540z" stroke="none" fill="#FFFFFF" fill-rule="evenodd" /></g><g clip-path="url(#3)"><g transform="matrix(0.3035357 0 0 0.3035371 -0.02252 22.07697)"><g transform="matrix(1 0 0 1 0 0)"><image x="0" y="0" xlink:href="img_01.png" width="84" height="1620" /></g></g></g><g clip-path="url(#4)"><path transform="matrix(1 0 0 -1 0 540)" d="M0 -1.4172L22.677 -1.4172L22.677 -1.4172L22.677 540.0028L22.677 540.0028L0 540.0028z" stroke="none" fill="#9BBB59" fill-rule="evenodd" fill-opacity="0.6901961" /></g><path transform="matrix(1 0 0 -1 0 540)" d="M36.814 464.99L694.45 463.68" stroke="#98B954" stroke-width="3" fill="none" /><g clip-path="url(#5)"><g transform="matrix(0.3274028 0 0 0.3252933 38.445 116.913)"><g transform="matrix(1 0 0 1 0 0)"><image x="0" y="0" xlink:href="img_03.png" width="72" height="75" /></g></g></g><g clip-path="url(#6)"><g transform="matrix(0.3274028 0 0 0.3252933 310.56 116.913)"><g transform="matrix(1 0 0 1 0 0)"><image x="0" y="0" xlink:href="img_03.png" width="72" height="75" /></g></g></g><path transform="matrix(1 0 0 -1 0 540)" d="M73.654 318.3C 73.654 326.07 79.952 332.37 87.721 332.37L87.721 332.37L260.88 332.37C 268.65 332.37 274.95 326.07 274.95 318.3L274.95 318.3L274.95 45.93C 274.95 38.161 268.65 31.863 260.88 31.863L260.88 31.863L87.721 31.863C 79.952 31.863 73.654 38.161 73.654 45.93z" stroke="#9BBB59" stroke-width="2.75" fill="none" /><g clip-path="url(#7)"><g clip-path="url(#8)"><path transform="matrix(1 0 0 -1 0 540)" d="M135.3804 296.1405L144.8807 296.1405" stroke="#000000" stroke-width="0.4997432" fill="none" /><path transform="matrix(1 0 0 -1 0 540)" d="M161.8819 296.1405L170.8831 296.1405" stroke="#000000" stroke-width="0.4997432" fill="none" /><path transform="matrix(1 0 0 -1 0 540)" d="M136.1304 253.2931L144.8807 253.2931" stroke="#000000" stroke-width="0.4997432" fill="none" /><path transform="matrix(1 0 0 -1 0 540)" d="M161.8819 253.2931L170.8831 253.2931" stroke="#000000" stroke-width="0.4997432" fill="none" /></g></g><g clip-path="url(#9)"><g clip-path="url(#10)"><path transform="matrix(1 0 0 -1 0 540)" d="M136.1338 161.5905L145.6361 161.5905" stroke="#000000" stroke-width="0.4999776" fill="none" /><path transform="matrix(1 0 0 -1 0 540)" d="M162.6404 161.5905L171.6427 161.5905" stroke="#000000" stroke-width="0.4999776" fill="none" /><path transform="matrix(1 0 0 -1 0 540)" d="M122.3806 118.7431L145.6361 118.7431" stroke="#000000" stroke-width="0.4999776" fill="none" /><path transform="matrix(1 0 0 -1 0 540)" d="M162.6404 118.7431L171.6427 118.7431" stroke="#000000" stroke-width="0.4999776" fill="none" /></g></g><path transform="matrix(1 0 0 -1 0 540)" d="M347.33 318.3C 347.33 326.07 353.63 332.37 361.39 332.37L361.39 332.37L534.56 332.37C 542.33 332.37 548.63 326.07 548.63 318.3L548.63 318.3L548.63 45.93C 548.63 38.161 542.33 31.863 534.56 31.863L534.56 31.863L361.39 31.863C 353.63 31.863 347.33 38.161 347.33 45.93z" stroke="#9BBB59" stroke-width="2.75" fill="none" /><g clip-path="url(#11)"><g clip-path="url(#12)"><path transform="matrix(1 0 0 -1 0 540)" d="M407.0002 296.0905L416.5029 296.0905" stroke="#000000" stroke-width="0.5004199" fill="none" /><path transform="matrix(1 0 0 -1 0 540)" d="M433.5067 296.0905L442.5082 296.0905" stroke="#000000" stroke-width="0.5004199" fill="none" /><path transform="matrix(1 0 0 -1 0 540)" d="M407.7508 253.2431L416.5029 253.2431" stroke="#000000" stroke-width="0.5004199" fill="none" /><path transform="matrix(1 0 0 -1 0 540)" d="M433.5067 253.2431L442.5082 253.2431" stroke="#000000" stroke-width="0.5004199" fill="none" /></g></g><g clip-path="url(#13)"><g clip-path="url(#14)"><path transform="matrix(1 0 0 -1 0 540)" d="M409.3806 161.5905L418.8804 161.5905" stroke="#000000" stroke-width="0.4998781" fill="none" /><path transform="matrix(1 0 0 -1 0 540)" d="M435.881 161.5905L444.8809 161.5905" stroke="#000000" stroke-width="0.4998781" fill="none" /><path transform="matrix(1 0 0 -1 0 540)" d="M399.3802 118.7431L418.8804 118.7431" stroke="#000000" stroke-width="0.4998781" fill="none" /><path transform="matrix(1 0 0 -1 0 540)" d="M435.881 118.7431L444.8809 118.7431" stroke="#000000" stroke-width="0.4998781" fill="none" /></g></g></g></g></g></svg>