<svg xmlns="http://www.w3.org/2000/svg" xmlns:xlink="http://www.w3.org/1999/xlink" id="body_13" preserveAspectRatio="xMinYMin meet" viewBox="0 0 960 720"><defs><clipPath id="1"><path d="M0 540L0 0L0 0L720 0L720 0L720 540L720 540L0 540z" /></clipPath><clipPath id="2"><path d="M0 539.9999L720 539.9999L720 539.9999L720 -0.0001220703L720 -0.0001220703L0 -0.0001220703z" /></clipPath><clipPath id="3"><path d="M0 539.9998L720 539.9998L720 539.9998L720 -0.0001831055L720 -0.0001831055L0 -0.0001831055z" /></clipPath><clipPath id="4"><path d="M0 539.9998L720 539.9998L720 539.9998L720 -0.0002441406L720 -0.0002441406L0 -0.0002441406z" /></clipPath><clipPath id="5"><path d="M-2.35E-07 539.9998L720 539.9998L720 539.9998L720 -0.0001831055L720 -0.0001831055L-2.35E-07 -0.0001831055z" /></clipPath><clipPath id="6"><path d="M-5.73E-07 0L720 0L720 0L720 539.9999L720 539.9999L-5.73E-07 539.9999" /></clipPath><clipPath id="7"><path d="M-5.73E-07 0L720 0L720 0L720 539.9999L720 539.9999L-5.73E-07 539.9999" /></clipPath></defs><g transform="matrix(1.333333 0 0 1.333333 0 0)"><g><g clip-path="url(#1)"><g clip-path="url(#2)"><path transform="matrix(1 0 0 -1 0 540)" d="M0 6.104E-06L720 6.104E-06L720 6.104E-06L720 540L720 540L0 540z" stroke="none" fill="#FFFFFF" fill-rule="evenodd" /></g><g clip-path="url(#3)"><g transform="matrix(0.3035357 0 0 0.3035371 -0.02252 22.07697)"><g transform="matrix(1 0 0 1 0 0)"><image x="0" y="0" xlink:href="img_01.png" width="84" height="1620" /></g></g></g><g clip-path="url(#4)"><path transform="matrix(1 0 0 -1 0 540)" d="M0 -1.4172L22.677 -1.4172L22.677 -1.4172L22.677 540.0028L22.677 540.0028L0 540.0028z" stroke="none" fill="#9BBB59" fill-rule="evenodd" fill-opacity="0.6901961" /></g><path transform="matrix(1 0 0 -1 0 540)" d="M36.814 464.99L694.45 463.68" stroke="#98B954" stroke-width="3" fill="none" /><g clip-path="url(#5)"><g transform="matrix(0.3274028 0 0 0.3252933 38.445 112.933)"><g transform="matrix(1 0 0 1 0 0)"><image x="0" y="0" xlink:href="img_03.png" width="72" height="75" /></g></g></g><path transform="matrix(1 0 0 -1 0 540)" d="M74.7 361.24C 74.7 364.08 77.006 366.39 79.851 366.39L79.851 366.39L636.48 366.39C 639.32 366.39 641.63 364.08 641.63 361.24L641.63 361.24L641.63 297.83C 641.63 294.99 639.32 292.68 636.48 292.68L636.48 292.68L79.851 292.68C 77.006 292.68 74.7 294.99 74.7 297.83z" stroke="#9BBB59" stroke-width="2.75" fill="none" /><g clip-path="url(#6)"><path transform="matrix(1 0 0 -1 0 540)" d="M60.463 371.07L68.967 365.4L68.967 365.4L60.463 359.73z" stroke="none" fill="#8064A2" fill-rule="evenodd" /></g><g clip-path="url(#7)"><path transform="matrix(1 0 0 -1 0 540)" d="M60.463 371.07L68.967 365.4L68.967 365.4L60.463 359.73z" stroke="#5C4776" stroke-width="2" fill="none" /></g></g></g></g></svg>