<svg xmlns="http://www.w3.org/2000/svg" xmlns:xlink="http://www.w3.org/1999/xlink" id="body_100" preserveAspectRatio="xMinYMin meet" viewBox="0 0 960 720"><defs><clipPath id="1"><path d="M0 540L0 0L0 0L720 0L720 0L720 540L720 540L0 540z" /></clipPath><clipPath id="2"><path d="M0 539.9999L720 539.9999L720 539.9999L720 -0.0001220703L720 -0.0001220703L0 -0.0001220703z" /></clipPath><clipPath id="3"><path d="M0 539.9998L720 539.9998L720 539.9998L720 -0.0001831055L720 -0.0001831055L0 -0.0001831055z" /></clipPath><clipPath id="4"><path d="M0 539.9998L720 539.9998L720 539.9998L720 -0.0002441406L720 -0.0002441406L0 -0.0002441406z" /></clipPath><clipPath id="5"><path d="M-2.35E-07 539.9998L720 539.9998L720 539.9998L720 -0.0001831055L720 -0.0001831055L-2.35E-07 -0.0001831055z" /></clipPath><clipPath id="6"><path d="M-2.74E-07 539.9998L720 539.9998L720 539.9998L720 -0.0001831055L720 -0.0001831055L-2.74E-07 -0.0001831055z" /></clipPath></defs><g transform="matrix(1.333333 0 0 1.333333 0 0)"><g><g clip-path="url(#1)"><g clip-path="url(#2)"><path transform="matrix(1 0 0 -1 0 540)" d="M0 6.104E-06L720 6.104E-06L720 6.104E-06L720 540L720 540L0 540z" stroke="none" fill="#FFFFFF" fill-rule="evenodd" /></g><g clip-path="url(#3)"><g transform="matrix(0.3035357 0 0 0.3035371 -0.02252 22.07697)"><g transform="matrix(1 0 0 1 0 0)"><image x="0" y="0" xlink:href="img_01.png" width="84" height="1620" /></g></g></g><g clip-path="url(#4)"><path transform="matrix(1 0 0 -1 0 540)" d="M0 -1.4172L22.677 -1.4172L22.677 -1.4172L22.677 540.0028L22.677 540.0028L0 540.0028z" stroke="none" fill="#9BBB59" fill-rule="evenodd" fill-opacity="0.6901961" /></g><path transform="matrix(1 0 0 -1 0 540)" d="M36.814 464.99L694.45 463.68" stroke="#98B954" stroke-width="3" fill="none" /><path transform="matrix(1 0 0 -1 0 540)" d="M36.814 464.99L694.45 463.68" stroke="#98B954" stroke-width="3" fill="none" /><g clip-path="url(#5)"><g transform="matrix(0.3274028 0 0 0.3252933 38.445 116.913)"><g transform="matrix(1 0 0 1 0 0)"><image x="0" y="0" xlink:href="img_03.png" width="72" height="75" /></g></g></g><path transform="matrix(1 0 0 -1 0 540)" d="M116.8 196.98L148.96 196.98L148.96 196.98L148.96 197.7L148.96 197.7L116.8 197.7z" stroke="none" fill="#000000" fill-rule="evenodd" /><g clip-path="url(#6)"><g transform="matrix(0.3274028 0 0 0.3252933 39.326 320.343)"><g transform="matrix(1 0 0 1 0 0)"><image x="0" y="0" xlink:href="img_03.png" width="72" height="75" /></g></g></g><path transform="matrix(1 0 0 -1 0 540)" d="M74.7 337.46C 74.7 341.46 77.941 344.7 81.938 344.7L81.938 344.7L634.39 344.7C 638.39 344.7 641.63 341.46 641.63 337.46L641.63 337.46L641.63 248.35C 641.63 244.36 638.39 241.12 634.39 241.12L634.39 241.12L81.938 241.12C 77.941 241.12 74.7 244.36 74.7 248.35z" stroke="#9BBB59" stroke-width="2.75" fill="none" /><path transform="matrix(1 0 0 -1 0 540)" d="M73.731 154.97C 73.731 159.84 77.681 163.79 82.554 163.79L82.554 163.79L631.84 163.79C 636.71 163.79 640.66 159.84 640.66 154.97L640.66 154.97L640.66 46.356C 640.66 41.483 636.71 37.533 631.84 37.533L631.84 37.533L82.554 37.533C 77.681 37.533 73.731 41.483 73.731 46.356z" stroke="#9BBB59" stroke-width="2.75" fill="none" /><path transform="matrix(1 0 0 -1 0 540)" d="M181.28 150.76L181.28 70.556" stroke="#000000" stroke-width="1" fill="none" /><path transform="matrix(1 0 0 -1 0 540)" d="M98.447 123.86L264.11 123.86" stroke="#000000" stroke-width="1" fill="none" /><path transform="matrix(1 0 0 -1 0 540)" d="M98.447 97.456L264.11 97.456" stroke="#000000" stroke-width="1" fill="none" /><path transform="matrix(1 0 0 -1 0 540)" d="M98.947 150.76L98.947 70.556" stroke="#000000" stroke-width="1" fill="none" /><path transform="matrix(1 0 0 -1 0 540)" d="M263.61 150.76L263.61 70.556" stroke="#000000" stroke-width="1" fill="none" /><path transform="matrix(1 0 0 -1 0 540)" d="M98.447 150.26L264.11 150.26" stroke="#000000" stroke-width="1" fill="none" /><path transform="matrix(1 0 0 -1 0 540)" d="M98.447 71.056L264.11 71.056" stroke="#000000" stroke-width="1" fill="none" /></g></g></g></svg>