<svg xmlns="http://www.w3.org/2000/svg" xmlns:xlink="http://www.w3.org/1999/xlink" id="body_97" preserveAspectRatio="xMinYMin meet" viewBox="0 0 960 720"><defs><clipPath id="1"><path d="M0 540L0 0L0 0L720 0L720 0L720 540L720 540L0 540z" /></clipPath><clipPath id="2"><path d="M0 539.9999L720 539.9999L720 539.9999L720 -0.0001220703L720 -0.0001220703L0 -0.0001220703z" /></clipPath><clipPath id="3"><path d="M0 539.9998L720 539.9998L720 539.9998L720 -0.0001831055L720 -0.0001831055L0 -0.0001831055z" /></clipPath><clipPath id="4"><path d="M0 539.9998L720 539.9998L720 539.9998L720 -0.0002441406L720 -0.0002441406L0 -0.0002441406z" /></clipPath><clipPath id="5"><path d="M41.4 331.2L348.6 331.2L348.6 331.2L348.6 196.8L348.6 196.8L41.4 196.8z" /></clipPath><clipPath id="6"><path d="M41.4 368.04L348.6 368.04L348.6 368.04L348.6 233.64L348.6 233.64L41.4 233.64z" /></clipPath><clipPath id="7"><path d="M41.4 404.88L348.6 404.88L348.6 404.88L348.6 270.48L348.6 270.48L41.4 270.48z" /></clipPath><clipPath id="8"><path d="M41.4 441.72L348.6 441.72L348.6 441.72L348.6 307.32L348.6 307.32L41.4 307.32z" /></clipPath><clipPath id="9"><path d="M41.4 478.56L348.6 478.56L348.6 478.56L348.6 344.16L348.6 344.16L41.4 344.16z" /></clipPath></defs><g transform="matrix(1.333333 0 0 1.333333 0 0)"><g><g clip-path="url(#1)"><g clip-path="url(#2)"><path transform="matrix(1 0 0 -1 0 540)" d="M0 6.104E-06L720 6.104E-06L720 6.104E-06L720 540L720 540L0 540z" stroke="none" fill="#FFFFFF" fill-rule="evenodd" /></g><g clip-path="url(#3)"><g transform="matrix(0.3035357 0 0 0.3035371 -0.02252 22.07697)"><g transform="matrix(1 0 0 1 0 0)"><image x="0" y="0" xlink:href="img_01.png" width="84" height="1620" /></g></g></g><g clip-path="url(#4)"><path transform="matrix(1 0 0 -1 0 540)" d="M0 -1.4172L22.677 -1.4172L22.677 -1.4172L22.677 540.0028L22.677 540.0028L0 540.0028z" stroke="none" fill="#9BBB59" fill-rule="evenodd" fill-opacity="0.6901961" /></g><path transform="matrix(1 0 0 -1 0 540)" d="M36.814 464.99L694.45 463.68" stroke="#98B954" stroke-width="3" fill="none" /><path transform="matrix(1 0 0 -1 0 540)" d="M348.66 331.83L348.66 109.7" stroke="#000000" stroke-width="1" fill="none" /><path transform="matrix(1 0 0 -1 0 540)" d="M496.08 331.83L496.08 109.7" stroke="#000000" stroke-width="1" fill="none" /><path transform="matrix(1 0 0 -1 0 540)" d="M40.941 294.47L688.31 294.47" stroke="#000000" stroke-width="1" fill="none" /><path transform="matrix(1 0 0 -1 0 540)" d="M40.941 257.62L688.31 257.62" stroke="#000000" stroke-width="1" fill="none" /><path transform="matrix(1 0 0 -1 0 540)" d="M40.941 220.76L688.31 220.76" stroke="#000000" stroke-width="1" fill="none" /><path transform="matrix(1 0 0 -1 0 540)" d="M40.941 183.91L688.31 183.91" stroke="#000000" stroke-width="1" fill="none" /><path transform="matrix(1 0 0 -1 0 540)" d="M40.941 147.05L688.31 147.05" stroke="#000000" stroke-width="1" fill="none" /><path transform="matrix(1 0 0 -1 0 540)" d="M41.441 331.83L41.441 109.7" stroke="#000000" stroke-width="1" fill="none" /><path transform="matrix(1 0 0 -1 0 540)" d="M687.81 331.83L687.81 109.7" stroke="#000000" stroke-width="1" fill="none" /><path transform="matrix(1 0 0 -1 0 540)" d="M40.941 331.33L688.31 331.33" stroke="#000000" stroke-width="1" fill="none" /><path transform="matrix(1 0 0 -1 0 540)" d="M40.941 110.2L688.31 110.2" stroke="#000000" stroke-width="1" fill="none" /><g clip-path="url(#5)"></g><g clip-path="url(#6)"></g><g clip-path="url(#7)"></g><g clip-path="url(#8)"></g><g clip-path="url(#9)"></g></g></g></g></svg>