<svg xmlns="http://www.w3.org/2000/svg" xmlns:xlink="http://www.w3.org/1999/xlink" id="body_62" preserveAspectRatio="xMinYMin meet" viewBox="0 0 960 720"><defs><clipPath id="1"><path d="M0 540L0 0L0 0L720 0L720 0L720 540L720 540L0 540z" /></clipPath><clipPath id="2"><path d="M0 539.9999L720 539.9999L720 539.9999L720 -0.0001220703L720 -0.0001220703L0 -0.0001220703z" /></clipPath><clipPath id="3"><path d="M0 539.9998L720 539.9998L720 539.9998L720 -0.0001831055L720 -0.0001831055L0 -0.0001831055z" /></clipPath><clipPath id="4"><path d="M0 539.9998L720 539.9998L720 539.9998L720 -0.0002441406L720 -0.0002441406L0 -0.0002441406z" /></clipPath><clipPath id="5"><path d="M-2.35E-07 539.9998L720 539.9998L720 539.9998L720 -0.0001831055L720 -0.0001831055L-2.35E-07 -0.0001831055z" /></clipPath><clipPath id="6"><path d="M-3.105E-06 0L720 0L720 0L720 539.9999L720 539.9999L-3.105E-06 539.9999" /></clipPath><clipPath id="7"><path d="M-3.105E-06 0L720 0L720 0L720 539.9999L720 539.9999L-3.105E-06 539.9999" /></clipPath></defs><g transform="matrix(1.333333 0 0 1.333333 0 0)"><g><g clip-path="url(#1)"><g clip-path="url(#2)"><path transform="matrix(1 0 0 -1 0 540)" d="M0 6.104E-06L720 6.104E-06L720 6.104E-06L720 540L720 540L0 540z" stroke="none" fill="#FFFFFF" fill-rule="evenodd" /></g><g clip-path="url(#3)"><g transform="matrix(0.3035357 0 0 0.3035371 -0.02252 22.07697)"><g transform="matrix(1 0 0 1 0 0)"><image x="0" y="0" xlink:href="img_01.png" width="84" height="1620" /></g></g></g><g clip-path="url(#4)"><path transform="matrix(1 0 0 -1 0 540)" d="M0 -1.4172L22.677 -1.4172L22.677 -1.4172L22.677 540.0028L22.677 540.0028L0 540.0028z" stroke="none" fill="#9BBB59" fill-rule="evenodd" fill-opacity="0.6901961" /></g><path transform="matrix(1 0 0 -1 0 540)" d="M36.814 464.99L694.45 463.68" stroke="#98B954" stroke-width="3" fill="none" /><g clip-path="url(#5)"><g transform="matrix(0.3274028 0 0 0.3252933 38.445 145.263)"><g transform="matrix(1 0 0 1 0 0)"><image x="0" y="0" xlink:href="img_03.png" width="72" height="75" /></g></g></g><path transform="matrix(1 0 0 -1 0 540)" d="M68.967 295.43C 68.967 303.3 75.353 309.69 83.231 309.69L83.231 309.69L627.37 309.69C 635.24 309.69 641.63 303.3 641.63 295.43L641.63 295.43L641.63 119.84C 641.63 111.96 635.24 105.57 627.37 105.57L627.37 105.57L83.231 105.57C 75.353 105.57 68.967 111.96 68.967 119.84z" stroke="#9BBB59" stroke-width="2.75" fill="none" /><path transform="matrix(1 0 0 -1 0 540)" d="M107.99 222.17L283.76 222.17" stroke="#000000" stroke-width="0.75" fill="none" /><path transform="matrix(1 0 0 -1 0 540)" d="M391.51 309.69L391.51 105.57" stroke="#98B954" stroke-width="0.75" fill="none" /><g clip-path="url(#6)"><path transform="matrix(1 0 0 -1 0 540)" d="M402.53 302.35L411.03 296.68L411.03 296.68L402.53 291.01z" stroke="none" fill="#8064A2" fill-rule="evenodd" /></g><g clip-path="url(#7)"><path transform="matrix(1 0 0 -1 0 540)" d="M402.53 302.35L411.03 296.68L411.03 296.68L402.53 291.01z" stroke="#5C4776" stroke-width="2" fill="none" /></g></g></g></g></svg>