<svg xmlns="http://www.w3.org/2000/svg" xmlns:xlink="http://www.w3.org/1999/xlink" id="body_23" preserveAspectRatio="xMinYMin meet" viewBox="0 0 960 720"><defs><clipPath id="1"><path d="M0 540L0 0L0 0L720 0L720 0L720 540L720 540L0 540z" /></clipPath><clipPath id="2"><path d="M0 539.9999L720 539.9999L720 539.9999L720 -0.0001220703L720 -0.0001220703L0 -0.0001220703z" /></clipPath><clipPath id="3"><path d="M0 539.9998L720 539.9998L720 539.9998L720 -0.0001831055L720 -0.0001831055L0 -0.0001831055z" /></clipPath><clipPath id="4"><path d="M0 539.9998L720 539.9998L720 539.9998L720 -0.0002441406L720 -0.0002441406L0 -0.0002441406z" /></clipPath><clipPath id="5"><path d="M-2.35E-07 539.9998L720 539.9998L720 539.9998L720 -0.0001831055L720 -0.0001831055L-2.35E-07 -0.0001831055z" /></clipPath><clipPath id="6"><path d="M-1.995E-06 539.9998L720 539.9998L720 539.9998L720 -0.0001831055L720 -0.0001831055L-1.995E-06 -0.0001831055z" /></clipPath><clipPath id="7"><path d="M-1.76E-07 0L720 0L720 0L720 539.9999L720 539.9999L-1.76E-07 539.9999" /></clipPath><clipPath id="8"><path d="M-1.76E-07 0L720 0L720 0L720 539.9999L720 539.9999L-1.76E-07 539.9999" /></clipPath></defs><g transform="matrix(1.333333 0 0 1.333333 0 0)"><g><g clip-path="url(#1)"><g clip-path="url(#2)"><path transform="matrix(1 0 0 -1 0 540)" d="M0 6.104E-06L720 6.104E-06L720 6.104E-06L720 540L720 540L0 540z" stroke="none" fill="#FFFFFF" fill-rule="evenodd" /></g><g clip-path="url(#3)"><g transform="matrix(0.3035357 0 0 0.3035371 -0.02252 22.07697)"><g transform="matrix(1 0 0 1 0 0)"><image x="0" y="0" xlink:href="img_01.png" width="84" height="1620" /></g></g></g><g clip-path="url(#4)"><path transform="matrix(1 0 0 -1 0 540)" d="M0 -1.4172L22.677 -1.4172L22.677 -1.4172L22.677 540.0028L22.677 540.0028L0 540.0028z" stroke="none" fill="#9BBB59" fill-rule="evenodd" fill-opacity="0.6901961" /></g><path transform="matrix(1 0 0 -1 0 540)" d="M36.814 464.99L694.45 463.68" stroke="#98B954" stroke-width="3" fill="none" /><g clip-path="url(#5)"><g transform="matrix(0.3274028 0 0 0.3252933 38.445 116.913)"><g transform="matrix(1 0 0 1 0 0)"><image x="0" y="0" xlink:href="img_03.png" width="72" height="75" /></g></g></g><g clip-path="url(#6)"><g transform="matrix(0.3274028 0 0 0.3252933 310.56 116.913)"><g transform="matrix(1 0 0 1 0 0)"><image x="0" y="0" xlink:href="img_03.png" width="72" height="75" /></g></g></g><path transform="matrix(1 0 0 -1 0 540)" d="M73.654 318.3C 73.654 326.07 79.952 332.37 87.721 332.37L87.721 332.37L260.88 332.37C 268.65 332.37 274.95 326.07 274.95 318.3L274.95 318.3L274.95 45.93C 274.95 38.161 268.65 31.863 260.88 31.863L260.88 31.863L87.721 31.863C 79.952 31.863 73.654 38.161 73.654 45.93z" stroke="#9BBB59" stroke-width="2.75" fill="none" /><g clip-path="url(#7)"><path transform="matrix(1 0 0 -1 0 540)" d="M60.463 337.05L68.342 331.38L68.342 331.38L60.463 325.71z" stroke="none" fill="#8064A2" fill-rule="evenodd" /></g><g clip-path="url(#8)"><path transform="matrix(1 0 0 -1 0 540)" d="M60.463 337.05L68.342 331.38L68.342 331.38L60.463 325.71z" stroke="#5C4776" stroke-width="2" fill="none" /></g><path transform="matrix(1 0 0 -1 0 540)" d="M347.33 318.3C 347.33 326.07 353.63 332.37 361.39 332.37L361.39 332.37L534.56 332.37C 542.33 332.37 548.63 326.07 548.63 318.3L548.63 318.3L548.63 45.93C 548.63 38.161 542.33 31.863 534.56 31.863L534.56 31.863L361.39 31.863C 353.63 31.863 347.33 38.161 347.33 45.93z" stroke="#9BBB59" stroke-width="2.75" fill="none" /></g></g></g></svg>