<svg xmlns="http://www.w3.org/2000/svg" xmlns:xlink="http://www.w3.org/1999/xlink" id="body_17" preserveAspectRatio="xMinYMin meet" viewBox="0 0 960 720"><defs><clipPath id="1"><path d="M0 540L0 0L0 0L720 0L720 0L720 540L720 540L0 540z" /></clipPath><clipPath id="2"><path d="M0 539.9999L720 539.9999L720 539.9999L720 -0.0001220703L720 -0.0001220703L0 -0.0001220703z" /></clipPath><clipPath id="3"><path d="M0 539.9998L720 539.9998L720 539.9998L720 -0.0001831055L720 -0.0001831055L0 -0.0001831055z" /></clipPath><clipPath id="4"><path d="M0 539.9998L720 539.9998L720 539.9998L720 -0.0002441406L720 -0.0002441406L0 -0.0002441406z" /></clipPath><clipPath id="5"><path d="M-2.35E-07 539.9998L720 539.9998L720 539.9998L720 -0.0001831055L720 -0.0001831055L-2.35E-07 -0.0001831055z" /></clipPath><clipPath id="6"><path d="M-3.17E-07 0L720 0L720 0L720 539.9999L720 539.9999L-3.17E-07 539.9999" /></clipPath><clipPath id="7"><path d="M-3.17E-07 0L720 0L720 0L720 539.9999L720 539.9999L-3.17E-07 539.9999" /></clipPath></defs><g transform="matrix(1.333333 0 0 1.333333 0 0)"><g><g clip-path="url(#1)"><g clip-path="url(#2)"><path transform="matrix(1 0 0 -1 0 540)" d="M0 6.104E-06L720 6.104E-06L720 6.104E-06L720 540L720 540L0 540z" stroke="none" fill="#FFFFFF" fill-rule="evenodd" /></g><g clip-path="url(#3)"><g transform="matrix(0.3035357 0 0 0.3035371 -0.02252 22.07697)"><g transform="matrix(1 0 0 1 0 0)"><image x="0" y="0" xlink:href="img_01.png" width="84" height="1620" /></g></g></g><g clip-path="url(#4)"><path transform="matrix(1 0 0 -1 0 540)" d="M0 -1.4172L22.677 -1.4172L22.677 -1.4172L22.677 540.0028L22.677 540.0028L0 540.0028z" stroke="none" fill="#9BBB59" fill-rule="evenodd" fill-opacity="0.6901961" /></g><path transform="matrix(1 0 0 -1 0 540)" d="M36.814 464.99L694.45 463.68" stroke="#98B954" stroke-width="3" fill="none" /><g clip-path="url(#5)"><g transform="matrix(0.3274028 0 0 0.3252933 38.445 112.933)"><g transform="matrix(1 0 0 1 0 0)"><image x="0" y="0" xlink:href="img_03.png" width="72" height="75" /></g></g></g><path transform="matrix(1 0 0 -1 0 540)" d="M178.63 378.25C 178.63 381.09 180.93 383.4 183.78 383.4L183.78 383.4L678.03 383.4C 680.88 383.4 683.19 381.09 683.19 378.25L683.19 378.25L683.19 314.84C 683.19 312 680.88 309.69 678.03 309.69L678.03 309.69L183.78 309.69C 180.93 309.69 178.63 312 178.63 314.84z" stroke="#9BBB59" stroke-width="2.75" fill="none" /><path transform="matrix(1 0 0 -1 0 540)" d="M178.63 288.78C 178.63 291.62 180.93 293.93 183.78 293.93L183.78 293.93L678.03 293.93C 680.88 293.93 683.19 291.62 683.19 288.78L683.19 288.78L683.19 225.37C 683.19 222.53 680.88 220.22 678.03 220.22L678.03 220.22L183.78 220.22C 180.93 220.22 178.63 222.53 178.63 225.37z" stroke="#9BBB59" stroke-width="2.75" fill="none" /><g clip-path="url(#6)"><path transform="matrix(1 0 0 -1 0 540)" d="M164.39 298.61L172.89 292.94L172.89 292.94L164.39 287.27z" stroke="none" fill="#8064A2" fill-rule="evenodd" /></g><g clip-path="url(#7)"><path transform="matrix(1 0 0 -1 0 540)" d="M164.39 298.61L172.89 292.94L172.89 292.94L164.39 287.27z" stroke="#5C4776" stroke-width="2" fill="none" /></g><path transform="matrix(1 0 0 -1 0 540)" d="M212.45 199.31C 212.45 202.16 214.75 204.46 217.6 204.46L217.6 204.46L678.03 204.46C 680.88 204.46 683.19 202.16 683.19 199.31L683.19 199.31L683.19 135.91C 683.19 133.06 680.88 130.75 678.03 130.75L678.03 130.75L217.6 130.75C 214.75 130.75 212.45 133.06 212.45 135.91z" stroke="#9BBB59" stroke-width="2.75" fill="none" /><path transform="matrix(1 0 0 -1 0 540)" d="M212.45 109.85C 212.45 112.69 214.75 115 217.6 115L217.6 115L678.03 115C 680.88 115 683.19 112.69 683.19 109.85L683.19 109.85L683.19 46.438C 683.19 43.593 680.88 41.287 678.03 41.287L678.03 41.287L217.6 41.287C 214.75 41.287 212.45 43.593 212.45 46.438z" stroke="#9BBB59" stroke-width="2.75" fill="none" /></g></g></g></svg>