<svg xmlns="http://www.w3.org/2000/svg" xmlns:xlink="http://www.w3.org/1999/xlink" id="body_15" preserveAspectRatio="xMinYMin meet" viewBox="0 0 960 720"><defs><clipPath id="1"><path d="M0 540L0 0L0 0L720 0L720 0L720 540L720 540L0 540z" /></clipPath><clipPath id="2"><path d="M0 539.9999L720 539.9999L720 539.9999L720 -0.0001220703L720 -0.0001220703L0 -0.0001220703z" /></clipPath><clipPath id="3"><path d="M0 539.9998L720 539.9998L720 539.9998L720 -0.0001831055L720 -0.0001831055L0 -0.0001831055z" /></clipPath><clipPath id="4"><path d="M0 539.9998L720 539.9998L720 539.9998L720 -0.0002441406L720 -0.0002441406L0 -0.0002441406z" /></clipPath><clipPath id="5"><path d="M-2.35E-07 539.9998L720 539.9998L720 539.9998L720 -0.0001831055L720 -0.0001831055L-2.35E-07 -0.0001831055z" /></clipPath><clipPath id="6"><path d="M-2.35E-07 539.9998L720 539.9998L720 539.9998L720 -0.0001831055L720 -0.0001831055L-2.35E-07 -0.0001831055z" /></clipPath><clipPath id="7"><path d="M-1.253E-06 539.9998L720 539.9998L720 539.9998L720 -0.0001831055L720 -0.0001831055L-1.253E-06 -0.0001831055z" /></clipPath><clipPath id="8"><path d="M150.89 433.75L262.892 433.75L262.892 433.75L262.892 373.7496L262.892 373.7496L150.89 373.7496z" /></clipPath><clipPath id="9"><path d="M-1.498E-06 539.9998L720 539.9998L720 539.9998L720 -0.0001831055L720 -0.0001831055L-1.498E-06 -0.0001831055z" /></clipPath><clipPath id="10"><path d="M130.38 413.75L149.3805 413.75L149.3805 413.75L149.3805 373.7496L149.3805 373.7496L130.38 373.7496z" /></clipPath><clipPath id="11"><path d="M-1.237E-06 539.9998L720 539.9998L720 539.9998L720 -0.0001831055L720 -0.0001831055L-1.237E-06 -0.0001831055z" /></clipPath><clipPath id="12"><path d="M152.23 345.62L184.2293 345.62L184.2293 345.62L184.2293 305.6196L184.2293 305.6196L152.23 305.6196z" /></clipPath><clipPath id="13"><path d="M-2.436E-06 539.9998L720 539.9998L720 539.9998L720 -0.0001831055L720 -0.0001831055L-2.436E-06 -0.0001831055z" /></clipPath><clipPath id="14"><path d="M307.63 345.62L340.6296 345.62L340.6296 345.62L340.6296 305.6196L340.6296 305.6196L307.63 305.6196z" /></clipPath><clipPath id="15"><path d="M-4.558E-06 539.9998L720 539.9998L720 539.9998L720 -0.0001831055L720 -0.0001831055L-4.558E-06 -0.0001831055z" /></clipPath><clipPath id="16"><path d="M385.62 458.591L498.6173 458.591L498.6173 458.591L498.6173 373.5893L498.6173 373.5893L385.62 373.5893z" /></clipPath><clipPath id="17"><path d="M-1.745E-06 539.9998L720 539.9998L720 539.9998L720 -0.0001831055L720 -0.0001831055L-1.745E-06 -0.0001831055z" /></clipPath><clipPath id="18"><path d="M365.63 413.75L384.6305 413.75L384.6305 413.75L384.6305 373.7496L384.6305 373.7496L365.63 373.7496z" /></clipPath></defs><g transform="matrix(1.333333 0 0 1.333333 0 0)"><g><g clip-path="url(#1)"><g clip-path="url(#2)"><path transform="matrix(1 0 0 -1 0 540)" d="M0 6.104E-06L720 6.104E-06L720 6.104E-06L720 540L720 540L0 540z" stroke="none" fill="#FFFFFF" fill-rule="evenodd" /></g><g clip-path="url(#3)"><g transform="matrix(0.3035357 0 0 0.3035371 -0.02252 22.07697)"><g transform="matrix(1 0 0 1 0 0)"><image x="0" y="0" xlink:href="img_01.png" width="84" height="1620" /></g></g></g><g clip-path="url(#4)"><path transform="matrix(1 0 0 -1 0 540)" d="M0 -1.4172L22.677 -1.4172L22.677 -1.4172L22.677 540.0028L22.677 540.0028L0 540.0028z" stroke="none" fill="#9BBB59" fill-rule="evenodd" fill-opacity="0.6901961" /></g><path transform="matrix(1 0 0 -1 0 540)" d="M36.814 464.99L694.45 463.68" stroke="#98B954" stroke-width="3" fill="none" /><g clip-path="url(#5)"><g transform="matrix(0.3274028 0 0 0.3252933 38.445 112.933)"><g transform="matrix(1 0 0 1 0 0)"><image x="0" y="0" xlink:href="img_03.png" width="72" height="75" /></g></g></g><g clip-path="url(#6)"><g transform="matrix(0.3274028 0 0 0.3252933 38.445 277.363)"><g transform="matrix(1 0 0 1 0 0)"><image x="0" y="0" xlink:href="img_03.png" width="72" height="75" /></g></g></g><path transform="matrix(1 0 0 -1 0 540)" d="M74.7 361.24C 74.7 364.08 77.006 366.39 79.851 366.39L79.851 366.39L636.48 366.39C 639.32 366.39 641.63 364.08 641.63 361.24L641.63 361.24L641.63 297.83C 641.63 294.99 639.32 292.68 636.48 292.68L636.48 292.68L79.851 292.68C 77.006 292.68 74.7 294.99 74.7 297.83z" stroke="#9BBB59" stroke-width="2.75" fill="none" /><path transform="matrix(1 0 0 -1 0 540)" d="M74.7 172.28C 74.7 176.69 78.279 180.27 82.694 180.27L82.694 180.27L633.64 180.27C 638.05 180.27 641.63 176.69 641.63 172.28L641.63 172.28L641.63 73.876C 641.63 69.462 638.05 65.883 633.64 65.883L633.64 65.883L82.694 65.883C 78.279 65.883 74.7 69.462 74.7 73.876z" stroke="#9BBB59" stroke-width="2.75" fill="none" /><g clip-path="url(#7)"><g clip-path="url(#8)"><path transform="matrix(1 0 0 -1 0 540)" d="M152.8902 145.6903L161.1389 145.6903" stroke="#000000" stroke-width="0.5000442" fill="none" /><path transform="matrix(1 0 0 -1 0 540)" d="M178.1378 145.6903L187.1367 145.6903" stroke="#000000" stroke-width="0.5000442" fill="none" /><path transform="matrix(1 0 0 -1 0 540)" d="M224.6324 145.6903L232.882 145.6903" stroke="#000000" stroke-width="0.5000442" fill="none" /></g></g><g clip-path="url(#9)"><g clip-path="url(#10)"><path transform="matrix(1 0 0 -1 0 540)" d="M132.3794 145.258L141.3768 145.258" stroke="#000000" stroke-width="0.5002266" fill="none" /></g></g><g clip-path="url(#11)"><g clip-path="url(#12)"><path transform="matrix(1 0 0 -1 0 540)" d="M154.2304 213.388L163.2318 213.388" stroke="#000000" stroke-width="0.500284" fill="none" /><path transform="matrix(1 0 0 -1 0 540)" d="M173.4831 213.388L181.7339 213.388" stroke="#000000" stroke-width="0.500284" fill="none" /></g></g><g clip-path="url(#13)"><g clip-path="url(#14)"><path transform="matrix(1 0 0 -1 0 540)" d="M309.6298 213.388L318.6268 213.388" stroke="#000000" stroke-width="0.4997678" fill="none" /><path transform="matrix(1 0 0 -1 0 540)" d="M328.8747 213.388L337.8723 213.388" stroke="#000000" stroke-width="0.4997678" fill="none" /></g></g><g clip-path="url(#15)"><g clip-path="url(#16)"><path transform="matrix(1 0 0 -1 0 540)" d="M387.6198 145.2882L396.6201 145.2882" stroke="#000000" stroke-width="0.4999465" fill="none" /><path transform="matrix(1 0 0 -1 0 540)" d="M413.6203 145.2882L422.6205 145.2882" stroke="#000000" stroke-width="0.4999465" fill="none" /><path transform="matrix(1 0 0 -1 0 540)" d="M459.8714 145.2882L468.871 145.2882" stroke="#000000" stroke-width="0.4999465" fill="none" /></g></g><g clip-path="url(#17)"><g clip-path="url(#18)"><path transform="matrix(1 0 0 -1 0 540)" d="M367.6294 145.258L376.6268 145.258" stroke="#000000" stroke-width="0.5002266" fill="none" /></g></g></g></g></g></svg>