<svg xmlns="http://www.w3.org/2000/svg" xmlns:xlink="http://www.w3.org/1999/xlink" id="body_73" preserveAspectRatio="xMinYMin meet" viewBox="0 0 960 720"><defs><clipPath id="1"><path d="M0 540L0 0L0 0L720 0L720 0L720 540L720 540L0 540z" /></clipPath><clipPath id="2"><path d="M0 539.9999L720 539.9999L720 539.9999L720 -0.0001220703L720 -0.0001220703L0 -0.0001220703z" /></clipPath><clipPath id="3"><path d="M0 539.9998L720 539.9998L720 539.9998L720 -0.0001831055L720 -0.0001831055L0 -0.0001831055z" /></clipPath><clipPath id="4"><path d="M0 539.9998L720 539.9998L720 539.9998L720 -0.0002441406L720 -0.0002441406L0 -0.0002441406z" /></clipPath><clipPath id="5"><path d="M-2.35E-07 539.9998L720 539.9998L720 539.9998L720 -0.0001831055L720 -0.0001831055L-2.35E-07 -0.0001831055z" /></clipPath><clipPath id="6"><path d="M-2.78E-07 539.9998L720 539.9998L720 539.9998L720 -0.0001831055L720 -0.0001831055L-2.78E-07 -0.0001831055z" /></clipPath><clipPath id="7"><path d="M232.66 353.4L348.6598 353.4L348.6598 353.4L348.6598 286.3998L348.6598 286.3998L232.66 286.3998z" /></clipPath><clipPath id="8"><path d="M-8.28E-07 0L720 0L720 0L720 539.9999L720 539.9999L-8.28E-07 539.9999" /></clipPath><clipPath id="9"><path d="M-8.28E-07 0L720 0L720 0L720 539.9999L720 539.9999L-8.28E-07 539.9999" /></clipPath></defs><g transform="matrix(1.333333 0 0 1.333333 0 0)"><g><g clip-path="url(#1)"><g clip-path="url(#2)"><path transform="matrix(1 0 0 -1 0 540)" d="M0 6.104E-06L720 6.104E-06L720 6.104E-06L720 540L720 540L0 540z" stroke="none" fill="#FFFFFF" fill-rule="evenodd" /></g><g clip-path="url(#3)"><g transform="matrix(0.3035357 0 0 0.3035371 -0.02252 22.07697)"><g transform="matrix(1 0 0 1 0 0)"><image x="0" y="0" xlink:href="img_01.png" width="84" height="1620" /></g></g></g><g clip-path="url(#4)"><path transform="matrix(1 0 0 -1 0 540)" d="M0 -1.4172L22.677 -1.4172L22.677 -1.4172L22.677 540.0028L22.677 540.0028L0 540.0028z" stroke="none" fill="#9BBB59" fill-rule="evenodd" fill-opacity="0.6901961" /></g><path transform="matrix(1 0 0 -1 0 540)" d="M36.814 464.99L694.45 463.68" stroke="#98B954" stroke-width="3" fill="none" /><g clip-path="url(#5)"><g transform="matrix(0.3274028 0 0 0.3252933 38.445 116.913)"><g transform="matrix(1 0 0 1 0 0)"><image x="0" y="0" xlink:href="img_03.png" width="72" height="75" /></g></g></g><path transform="matrix(1 0 0 -1 0 540)" d="M74.7 280.52C 74.7 290.37 82.683 298.35 92.53 298.35L92.53 298.35L638.5 298.35C 648.35 298.35 656.33 290.37 656.33 280.52L656.33 280.52L656.33 61.033C 656.33 51.186 648.35 43.203 638.5 43.203L638.5 43.203L92.53 43.203C 82.683 43.203 74.7 51.186 74.7 61.033z" stroke="#9BBB59" stroke-width="2.75" fill="none" /><g clip-path="url(#6)"><g clip-path="url(#7)"></g></g><g clip-path="url(#8)"><path transform="matrix(1 0 0 -1 0 540)" d="M86.344 139.59L94.848 133.92L94.848 133.92L86.344 128.25z" stroke="none" fill="#8064A2" fill-rule="evenodd" /></g><g clip-path="url(#9)"><path transform="matrix(1 0 0 -1 0 540)" d="M86.344 139.59L94.848 133.92L94.848 133.92L86.344 128.25z" stroke="#5C4776" stroke-width="2" fill="none" /></g></g></g></g></svg>