<svg xmlns="http://www.w3.org/2000/svg" xmlns:xlink="http://www.w3.org/1999/xlink" id="body_60" preserveAspectRatio="xMinYMin meet" viewBox="0 0 960 720"><defs><clipPath id="1"><path d="M0 540L0 0L0 0L720 0L720 0L720 540L720 540L0 540z" /></clipPath><clipPath id="2"><path d="M0 539.9999L720 539.9999L720 539.9999L720 -0.0001220703L720 -0.0001220703L0 -0.0001220703z" /></clipPath><clipPath id="3"><path d="M0 539.9998L720 539.9998L720 539.9998L720 -0.0001831055L720 -0.0001831055L0 -0.0001831055z" /></clipPath><clipPath id="4"><path d="M0 539.9998L720 539.9998L720 539.9998L720 -0.0002441406L720 -0.0002441406L0 -0.0002441406z" /></clipPath><clipPath id="5"><path d="M-2.35E-07 539.9998L720 539.9998L720 539.9998L720 -0.0001831055L720 -0.0001831055L-2.35E-07 -0.0001831055z" /></clipPath><clipPath id="6"><path d="M-9.04E-07 539.9998L720 539.9998L720 539.9998L720 -0.0001831055L720 -0.0001831055L-9.04E-07 -0.0001831055z" /></clipPath><clipPath id="7"><path d="M116.19 257.61L196.1881 257.61L196.1881 257.61L196.1881 173.6086L196.1881 173.6086L116.19 173.6086z" /></clipPath><clipPath id="8"><path d="M-2.2E-07 539.9998L720 539.9998L720 539.9998L720 -0.0001831055L720 -0.0001831055L-2.2E-07 -0.0001831055z" /></clipPath><clipPath id="9"><path d="M237.54 149.76L270.5396 149.76L270.5396 149.76L270.5396 109.7596L270.5396 109.7596L237.54 109.7596z" /></clipPath><clipPath id="10"><path d="M-7.68E-07 539.9998L720 539.9998L720 539.9998L720 -0.0001831055L720 -0.0001831055L-7.68E-07 -0.0001831055z" /></clipPath><clipPath id="11"><path d="M127.6 399.16L246.5992 399.16L246.5992 399.16L246.5992 273.1564L246.5992 273.1564L127.6 273.1564z" /></clipPath></defs><g transform="matrix(1.333333 0 0 1.333333 0 0)"><g><g clip-path="url(#1)"><g clip-path="url(#2)"><path transform="matrix(1 0 0 -1 0 540)" d="M0 6.104E-06L720 6.104E-06L720 6.104E-06L720 540L720 540L0 540z" stroke="none" fill="#FFFFFF" fill-rule="evenodd" /></g><g clip-path="url(#3)"><g transform="matrix(0.3035357 0 0 0.3035371 -0.02252 22.07697)"><g transform="matrix(1 0 0 1 0 0)"><image x="0" y="0" xlink:href="img_01.png" width="84" height="1620" /></g></g></g><g clip-path="url(#4)"><path transform="matrix(1 0 0 -1 0 540)" d="M0 -1.4172L22.677 -1.4172L22.677 -1.4172L22.677 540.0028L22.677 540.0028L0 540.0028z" stroke="none" fill="#9BBB59" fill-rule="evenodd" fill-opacity="0.6901961" /></g><path transform="matrix(1 0 0 -1 0 540)" d="M36.814 464.99L694.45 463.68" stroke="#98B954" stroke-width="3" fill="none" /><g clip-path="url(#5)"><g transform="matrix(0.3274028 0 0 0.3252933 38.445 116.913)"><g transform="matrix(1 0 0 1 0 0)"><image x="0" y="0" xlink:href="img_03.png" width="72" height="75" /></g></g></g><path transform="matrix(1 0 0 -1 0 540)" d="M74.7 368.96C 74.7 376.94 81.163 383.4 89.136 383.4L89.136 383.4L627.19 383.4C 635.17 383.4 641.63 376.94 641.63 368.96L641.63 368.96L641.63 131.35C 641.63 123.38 635.17 116.91 627.19 116.91L627.19 116.91L89.136 116.91C 81.163 116.91 74.7 123.38 74.7 131.35z" stroke="#9BBB59" stroke-width="2.75" fill="none" /><g clip-path="url(#6)"><g clip-path="url(#7)"><path transform="matrix(1 0 0 -1 0 540)" d="M123.4409 322.3892L132.9426 322.3892" stroke="#000000" stroke-width="0.4998301" fill="none" /><path transform="matrix(1 0 0 -1 0 540)" d="M149.9446 322.3892L158.9458 322.3892" stroke="#000000" stroke-width="0.4998301" fill="none" /></g></g><g clip-path="url(#8)"><g clip-path="url(#9)"><path transform="matrix(1 0 0 -1 0 540)" d="M239.5398 409.248L249.0366 409.248" stroke="#000000" stroke-width="0.4997678" fill="none" /><path transform="matrix(1 0 0 -1 0 540)" d="M259.2841 409.248L268.032 409.248" stroke="#000000" stroke-width="0.4997678" fill="none" /></g></g><g clip-path="url(#10)"><g clip-path="url(#11)"><path transform="matrix(1 0 0 -1 0 540)" d="M129.6001 245.6888L139.0985 245.6888" stroke="#000000" stroke-width="0.5000398" fill="none" /><path transform="matrix(1 0 0 -1 0 540)" d="M149.3471 245.6888L158.0966 245.6888" stroke="#000000" stroke-width="0.5000398" fill="none" /><path transform="matrix(1 0 0 -1 0 540)" d="M175.0944 245.6888L184.0935 245.6888" stroke="#000000" stroke-width="0.5000398" fill="none" /><path transform="matrix(1 0 0 -1 0 540)" d="M194.342 245.6888L202.341 245.6888" stroke="#000000" stroke-width="0.5000398" fill="none" /><path transform="matrix(1 0 0 -1 0 540)" d="M129.6001 202.8478L139.0985 202.8478" stroke="#000000" stroke-width="0.5000398" fill="none" /><path transform="matrix(1 0 0 -1 0 540)" d="M149.3471 202.8478L158.0966 202.8478" stroke="#000000" stroke-width="0.5000398" fill="none" /><path transform="matrix(1 0 0 -1 0 540)" d="M175.0944 202.8478L184.0935 202.8478" stroke="#000000" stroke-width="0.5000398" fill="none" /><path transform="matrix(1 0 0 -1 0 540)" d="M215.0892 202.8478L223.0888 202.8478" stroke="#000000" stroke-width="0.5000398" fill="none" /><path transform="matrix(1 0 0 -1 0 540)" d="M152.8472 160.0071L162.3455 160.0071" stroke="#000000" stroke-width="0.5000398" fill="none" /><path transform="matrix(1 0 0 -1 0 540)" d="M172.5943 160.0071L181.3436 160.0071" stroke="#000000" stroke-width="0.5000398" fill="none" /></g></g></g></g></g></svg>