<svg xmlns="http://www.w3.org/2000/svg" xmlns:xlink="http://www.w3.org/1999/xlink" id="body_22" preserveAspectRatio="xMinYMin meet" viewBox="0 0 960 720"><defs><clipPath id="1"><path d="M0 540L0 0L0 0L720 0L720 0L720 540L720 540L0 540z" /></clipPath><clipPath id="2"><path d="M0 539.9999L720 539.9999L720 539.9999L720 -0.0001220703L720 -0.0001220703L0 -0.0001220703z" /></clipPath><clipPath id="3"><path d="M0 539.9998L720 539.9998L720 539.9998L720 -0.0001831055L720 -0.0001831055L0 -0.0001831055z" /></clipPath><clipPath id="4"><path d="M0 539.9998L720 539.9998L720 539.9998L720 -0.0002441406L720 -0.0002441406L0 -0.0002441406z" /></clipPath><clipPath id="5"><path d="M-2.35E-07 539.9998L720 539.9998L720 539.9998L720 -0.0001831055L720 -0.0001831055L-2.35E-07 -0.0001831055z" /></clipPath><clipPath id="6"><path d="M1.8E-08 539.9998L720 539.9998L720 539.9998L720 -0.0001831055L720 -0.0001831055L1.8E-08 -0.0001831055z" /></clipPath></defs><g transform="matrix(1.333333 0 0 1.333333 0 0)"><g><g clip-path="url(#1)"><g clip-path="url(#2)"><path transform="matrix(1 0 0 -1 0 540)" d="M0 6.104E-06L720 6.104E-06L720 6.104E-06L720 540L720 540L0 540z" stroke="none" fill="#FCD5B5" fill-rule="evenodd" /></g><g clip-path="url(#3)"><g transform="matrix(0.3035357 0 0 0.3035371 -0.02252 22.07697)"><g transform="matrix(1 0 0 1 0 0)"><image x="0" y="0" xlink:href="img_01.png" width="84" height="1620" /></g></g></g><g clip-path="url(#4)"><path transform="matrix(1 0 0 -1 0 540)" d="M0 -1.4172L22.677 -1.4172L22.677 -1.4172L22.677 540.0028L22.677 540.0028L0 540.0028z" stroke="none" fill="#9BBB59" fill-rule="evenodd" fill-opacity="0.6901961" /></g><path transform="matrix(1 0 0 -1 0 540)" d="M36.814 464.99L694.45 463.68" stroke="#98B954" stroke-width="3" fill="none" /><g clip-path="url(#5)"><g transform="matrix(0.3274028 0 0 0.3252933 38.445 116.913)"><g transform="matrix(1 0 0 1 0 0)"><image x="0" y="0" xlink:href="img_03.png" width="72" height="75" /></g></g></g><path transform="matrix(1 0 0 -1 0 540)" d="M218.66 284.66L399.9 284.66L399.9 284.66L399.9 331.803L399.9 331.803L218.66 331.803z" stroke="none" fill="#9BBB59" fill-rule="evenodd" /><path transform="matrix(1 0 0 -1 0 540)" d="M399.89 284.66L581.13 284.66L581.13 284.66L581.13 331.803L581.13 331.803L399.89 331.803z" stroke="none" fill="#9BBB59" fill-rule="evenodd" /><path transform="matrix(1 0 0 -1 0 540)" d="M218.66 237.51L399.9 237.51L399.9 237.51L399.9 284.653L399.9 284.653L218.66 284.653z" stroke="none" fill="#EFF3EA" fill-rule="evenodd" /><path transform="matrix(1 0 0 -1 0 540)" d="M399.89 237.51L581.13 237.51L581.13 237.51L581.13 284.653L581.13 284.653L399.89 284.653z" stroke="none" fill="#EFF3EA" fill-rule="evenodd" /><path transform="matrix(1 0 0 -1 0 540)" d="M218.66 190.37L399.9 190.37L399.9 190.37L399.9 237.513L399.9 237.513L218.66 237.513z" stroke="none" fill="#FFFFFF" fill-rule="evenodd" /><path transform="matrix(1 0 0 -1 0 540)" d="M399.89 190.37L581.13 190.37L581.13 190.37L581.13 237.513L581.13 237.513L399.89 237.513z" stroke="none" fill="#FFFFFF" fill-rule="evenodd" /><path transform="matrix(1 0 0 -1 0 540)" d="M218.66 143.23L399.9 143.23L399.9 143.23L399.9 190.373L399.9 190.373L218.66 190.373z" stroke="none" fill="#EFF3EA" fill-rule="evenodd" /><path transform="matrix(1 0 0 -1 0 540)" d="M399.89 143.23L581.13 143.23L581.13 143.23L581.13 190.373L581.13 190.373L399.89 190.373z" stroke="none" fill="#EFF3EA" fill-rule="evenodd" /><path transform="matrix(1 0 0 -1 0 540)" d="M218.66 96.085L399.9 96.085L399.9 96.085L399.9 143.228L399.9 143.228L218.66 143.228z" stroke="none" fill="#FFFFFF" fill-rule="evenodd" /><path transform="matrix(1 0 0 -1 0 540)" d="M399.89 96.085L581.13 96.085L581.13 96.085L581.13 143.228L581.13 143.228L399.89 143.228z" stroke="none" fill="#FFFFFF" fill-rule="evenodd" /><path transform="matrix(1 0 0 -1 0 540)" d="M218.16 284.66L581.63 284.66" stroke="#9BBB59" stroke-width="1" fill="none" /><path transform="matrix(1 0 0 -1 0 540)" d="M218.16 237.51L581.63 237.51" stroke="#9BBB59" stroke-width="1" fill="none" /><path transform="matrix(1 0 0 -1 0 540)" d="M218.16 190.37L581.63 190.37" stroke="#9BBB59" stroke-width="1" fill="none" /><path transform="matrix(1 0 0 -1 0 540)" d="M218.16 143.23L581.63 143.23" stroke="#9BBB59" stroke-width="1" fill="none" /><path transform="matrix(1 0 0 -1 0 540)" d="M218.66 332.3L218.66 95.585" stroke="#9BBB59" stroke-width="1" fill="none" /><path transform="matrix(1 0 0 -1 0 540)" d="M581.13 332.3L581.13 95.585" stroke="#9BBB59" stroke-width="1" fill="none" /><path transform="matrix(1 0 0 -1 0 540)" d="M218.16 331.8L581.63 331.8" stroke="#9BBB59" stroke-width="1" fill="none" /><path transform="matrix(1 0 0 -1 0 540)" d="M218.16 96.085L581.63 96.085" stroke="#9BBB59" stroke-width="1" fill="none" /><path transform="matrix(1 0 0 -1 0 540)" d="M297.63 361.31L495.7 361.31" stroke="#4F6228" stroke-width="2.25" fill="none" /><path transform="matrix(1 0 0 -1 0 540)" d="M301.42 342.66L298.05 335.91L298.05 335.91L294.67 342.66zM299.17 361.82L299.17 341.54L299.17 341.54L296.92 341.54L296.92 341.54L296.92 361.82z" stroke="none" fill="#4F6228" fill-rule="winding" /><path transform="matrix(1 0 0 -1 0 540)" d="M499.45 343.25L496.08 336.5L496.08 336.5L492.7 343.25zM497.2 362.41L497.2 342.13L497.2 342.13L494.95 342.13L494.95 342.13L494.95 362.41z" stroke="none" fill="#4F6228" fill-rule="winding" /><g clip-path="url(#6)"><g transform="matrix(0.3577752 0 0 0.3778688 82.174 176.1)"><g transform="matrix(1 0 0 1 0 0)"><image x="0" y="0" xlink:href="img_23.png" width="258" height="488" /></g></g></g><path transform="matrix(1 0 0 -1 0 540)" d="M269.2 177.33C 269.2 180.26 271.57 182.63 274.5 182.63L274.5 182.63L317.46 182.63C 320.38 182.63 322.76 180.26 322.76 177.33L322.76 177.33L322.76 156.13C 322.76 153.21 320.38 150.83 317.46 150.83L317.46 150.83L274.5 150.83C 271.57 150.83 269.2 153.21 269.2 156.13z" stroke="#385D8A" stroke-width="2" fill="none" /><path transform="matrix(1 0 0 -1 0 540)" d="M269.2 129.41C 269.2 132.34 271.57 134.71 274.5 134.71L274.5 134.71L317.46 134.71C 320.38 134.71 322.76 132.34 322.76 129.41L322.76 129.41L322.76 108.21C 322.76 105.28 320.38 102.91 317.46 102.91L317.46 102.91L274.5 102.91C 271.57 102.91 269.2 105.28 269.2 108.21z" stroke="#385D8A" stroke-width="2" fill="none" /><path transform="matrix(1 0 0 -1 0 540)" d="M450.72 271.06C 450.72 273.98 453.09 276.36 456.02 276.36L456.02 276.36L498.98 276.36C 501.91 276.36 504.28 273.98 504.28 271.06L504.28 271.06L504.28 249.86C 504.28 246.93 501.91 244.56 498.98 244.56L498.98 244.56L456.02 244.56C 453.09 244.56 450.72 246.93 450.72 249.86z" stroke="#385D8A" stroke-width="2" fill="none" /><path transform="matrix(1 0 0 -1 0 540)" d="M450.72 225.7C 450.72 228.62 453.09 231 456.02 231L456.02 231L498.98 231C 501.91 231 504.28 228.62 504.28 225.7L504.28 225.7L504.28 204.5C 504.28 201.57 501.91 199.2 498.98 199.2L498.98 199.2L456.02 199.2C 453.09 199.2 450.72 201.57 450.72 204.5z" stroke="#385D8A" stroke-width="2" fill="none" /></g></g></g></svg>