<svg xmlns="http://www.w3.org/2000/svg" xmlns:xlink="http://www.w3.org/1999/xlink" id="body_89" preserveAspectRatio="xMinYMin meet" viewBox="0 0 960 720"><defs><clipPath id="1"><path d="M0 540L0 0L0 0L720 0L720 0L720 540L720 540L0 540z" /></clipPath><clipPath id="2"><path d="M0 539.9999L720 539.9999L720 539.9999L720 -0.0001220703L720 -0.0001220703L0 -0.0001220703z" /></clipPath><clipPath id="3"><path d="M0 539.9998L720 539.9998L720 539.9998L720 -0.0001831055L720 -0.0001831055L0 -0.0001831055z" /></clipPath><clipPath id="4"><path d="M0 539.9998L720 539.9998L720 539.9998L720 -0.0002441406L720 -0.0002441406L0 -0.0002441406z" /></clipPath><clipPath id="5"><path d="M3.9E-08 539.9998L720 539.9998L720 539.9998L720 -0.0001831055L720 -0.0001831055L3.9E-08 -0.0001831055z" /></clipPath><clipPath id="6"><path d="M-1.256E-06 0L720 0L720 0L720 539.9999L720 539.9999L-1.256E-06 539.9999" /></clipPath><clipPath id="7"><path d="M-2.35E-07 539.9998L720 539.9998L720 539.9998L720 -0.0001831055L720 -0.0001831055L-2.35E-07 -0.0001831055z" /></clipPath><clipPath id="8"><path d="M-1.594E-06 0L720 0L720 0L720 539.9999L720 539.9999L-1.594E-06 539.9999" /></clipPath><clipPath id="9"><path d="M-1.594E-06 0L720 0L720 0L720 539.9999L720 539.9999L-1.594E-06 539.9999" /></clipPath></defs><g transform="matrix(1.333333 0 0 1.333333 0 0)"><g><g clip-path="url(#1)"><g clip-path="url(#2)"><path transform="matrix(1 0 0 -1 0 540)" d="M0 6.104E-06L720 6.104E-06L720 6.104E-06L720 540L720 540L0 540z" stroke="none" fill="#FFFFFF" fill-rule="evenodd" /></g><g clip-path="url(#3)"><g transform="matrix(0.3035357 0 0 0.3035371 -0.02252 22.07697)"><g transform="matrix(1 0 0 1 0 0)"><image x="0" y="0" xlink:href="img_01.png" width="84" height="1620" /></g></g></g><g clip-path="url(#4)"><path transform="matrix(1 0 0 -1 0 540)" d="M0 -1.4172L22.677 -1.4172L22.677 -1.4172L22.677 540.0028L22.677 540.0028L0 540.0028z" stroke="none" fill="#9BBB59" fill-rule="evenodd" fill-opacity="0.6901961" /></g><path transform="matrix(1 0 0 -1 0 540)" d="M36.814 464.99L694.45 463.68" stroke="#98B954" stroke-width="3" fill="none" /><path transform="matrix(1 0 0 -1 0 540)" d="M36.814 464.99L694.45 463.68" stroke="#98B954" stroke-width="3" fill="none" /><g clip-path="url(#5)"><g transform="matrix(0.3268899 0 0 0.327321 50.305 156.6)"><g transform="matrix(1 0 0 1 0 0)"><image x="0" y="0" xlink:href="img_91.png" width="418" height="433" /></g></g></g><g clip-path="url(#6)"><path transform="matrix(1 0 0 -1 0 540)" d="M53.758 224.53L47.758 227.53L47.758 227.53L53.758 230.53zM183.49 230.53L189.49 227.53L189.49 227.53L183.49 224.53zM184.49 227.16L52.757 227.16L52.757 227.16L52.757 227.91L52.757 227.91L184.49 227.91z" stroke="none" fill="#7F7F7F" fill-rule="winding" /></g><g clip-path="url(#7)"><g transform="matrix(0.3274028 0 0 0.3252933 38.445 111.243)"><g transform="matrix(1 0 0 1 0 0)"><image x="0" y="0" xlink:href="img_03.png" width="72" height="75" /></g></g></g><path transform="matrix(1 0 0 -1 0 540)" d="M224.06 301.5C 224.06 306.57 228.17 310.68 233.24 310.68L233.24 310.68L685.27 310.68C 690.34 310.68 694.45 306.57 694.45 301.5L694.45 301.5L694.45 188.46C 694.45 183.39 690.34 179.28 685.27 179.28L685.27 179.28L233.24 179.28C 228.17 179.28 224.06 183.39 224.06 188.46z" stroke="#9BBB59" stroke-width="2.75" fill="none" /><g clip-path="url(#8)"><path transform="matrix(1 0 0 -1 0 540)" d="M238.1 247.32L246.6 241.65L246.6 241.65L238.1 235.98z" stroke="none" fill="#8064A2" fill-rule="evenodd" /></g><g clip-path="url(#9)"><path transform="matrix(1 0 0 -1 0 540)" d="M238.1 247.32L246.6 241.65L246.6 241.65L238.1 235.98z" stroke="#5C4776" stroke-width="2" fill="none" /></g></g></g></g></svg>