<svg xmlns="http://www.w3.org/2000/svg" xmlns:xlink="http://www.w3.org/1999/xlink" id="body_34" preserveAspectRatio="xMinYMin meet" viewBox="0 0 960 720"><defs><clipPath id="1"><path d="M0 540L0 0L0 0L720 0L720 0L720 540L720 540L0 540z" /></clipPath><clipPath id="2"><path d="M0 539.9999L720 539.9999L720 539.9999L720 -0.0001220703L720 -0.0001220703L0 -0.0001220703z" /></clipPath><clipPath id="3"><path d="M0 539.9998L720 539.9998L720 539.9998L720 -0.0001831055L720 -0.0001831055L0 -0.0001831055z" /></clipPath><clipPath id="4"><path d="M0 539.9998L720 539.9998L720 539.9998L720 -0.0002441406L720 -0.0002441406L0 -0.0002441406z" /></clipPath><clipPath id="5"><path d="M-2.35E-07 539.9998L720 539.9998L720 539.9998L720 -0.0001831055L720 -0.0001831055L-2.35E-07 -0.0001831055z" /></clipPath><clipPath id="6"><path d="M-2.35E-07 539.9998L720 539.9998L720 539.9998L720 -0.0001831055L720 -0.0001831055L-2.35E-07 -0.0001831055z" /></clipPath><clipPath id="7"><path d="M-1.261E-06 539.9998L720 539.9998L720 539.9998L720 -0.0001831055L720 -0.0001831055L-1.261E-06 -0.0001831055z" /></clipPath><clipPath id="8"><path d="M150.21 251.27L253.2138 251.27L253.2138 251.27L253.2138 162.2718L253.2138 162.2718L150.21 162.2718z" /></clipPath><clipPath id="9"><path d="M-5.73E-07 0L720 0L720 0L720 539.9999L720 539.9999L-5.73E-07 539.9999" /></clipPath><clipPath id="10"><path d="M-5.73E-07 0L720 0L720 0L720 539.9999L720 539.9999L-5.73E-07 539.9999" /></clipPath></defs><g transform="matrix(1.333333 0 0 1.333333 0 0)"><g><g clip-path="url(#1)"><g clip-path="url(#2)"><path transform="matrix(1 0 0 -1 0 540)" d="M0 6.104E-06L720 6.104E-06L720 6.104E-06L720 540L720 540L0 540z" stroke="none" fill="#FFFFFF" fill-rule="evenodd" /></g><g clip-path="url(#3)"><g transform="matrix(0.3035357 0 0 0.3035371 -0.02252 22.07697)"><g transform="matrix(1 0 0 1 0 0)"><image x="0" y="0" xlink:href="img_01.png" width="84" height="1620" /></g></g></g><g clip-path="url(#4)"><path transform="matrix(1 0 0 -1 0 540)" d="M0 -1.4172L22.677 -1.4172L22.677 -1.4172L22.677 540.0028L22.677 540.0028L0 540.0028z" stroke="none" fill="#9BBB59" fill-rule="evenodd" fill-opacity="0.6901961" /></g><path transform="matrix(1 0 0 -1 0 540)" d="M36.814 464.99L694.45 463.68" stroke="#98B954" stroke-width="3" fill="none" /><g clip-path="url(#5)"><g transform="matrix(0.3274028 0 0 0.3252933 38.445 116.913)"><g transform="matrix(1 0 0 1 0 0)"><image x="0" y="0" xlink:href="img_03.png" width="72" height="75" /></g></g></g><g clip-path="url(#6)"><g transform="matrix(0.3274028 0 0 0.3252933 38.445 270.003)"><g transform="matrix(1 0 0 1 0 0)"><image x="0" y="0" xlink:href="img_03.png" width="72" height="75" /></g></g></g><path transform="matrix(1 0 0 -1 0 540)" d="M74.7 382.46C 74.7 386.66 78.102 390.06 82.297 390.06L82.297 390.06L634.03 390.06C 638.23 390.06 641.63 386.66 641.63 382.46L641.63 382.46L641.63 288.94C 641.63 284.74 638.23 281.34 634.03 281.34L634.03 281.34L82.297 281.34C 78.102 281.34 74.7 284.74 74.7 288.94z" stroke="#9BBB59" stroke-width="2.75" fill="none" /><g clip-path="url(#7)"><g clip-path="url(#8)"><path transform="matrix(1 0 0 -1 0 540)" d="M157.4612 334.7349L167.7133 334.7349" stroke="#000000" stroke-width="0.4999129" fill="none" /><path transform="matrix(1 0 0 -1 0 540)" d="M184.716 334.7349L193.718 334.7349" stroke="#000000" stroke-width="0.4999129" fill="none" /></g></g><path transform="matrix(1 0 0 -1 0 540)" d="M74.7 176.76C 74.7 181.83 78.811 185.94 83.882 185.94L83.882 185.94L632.45 185.94C 637.52 185.94 641.63 181.83 641.63 176.76L641.63 176.76L641.63 63.725C 641.63 58.654 637.52 54.543 632.45 54.543L632.45 54.543L83.882 54.543C 78.811 54.543 74.7 58.654 74.7 63.725z" stroke="#9BBB59" stroke-width="2.75" fill="none" /><g clip-path="url(#9)"><path transform="matrix(1 0 0 -1 0 540)" d="M60.463 190.62L68.967 184.95L68.967 184.95L60.463 179.28z" stroke="none" fill="#8064A2" fill-rule="evenodd" /></g><g clip-path="url(#10)"><path transform="matrix(1 0 0 -1 0 540)" d="M60.463 190.62L68.967 184.95L68.967 184.95L60.463 179.28z" stroke="#5C4776" stroke-width="2" fill="none" /></g></g></g></g></svg>