<svg xmlns="http://www.w3.org/2000/svg" xmlns:xlink="http://www.w3.org/1999/xlink" id="body_69" preserveAspectRatio="xMinYMin meet" viewBox="0 0 960 720"><defs><clipPath id="1"><path d="M0 540L0 0L0 0L720 0L720 0L720 540L720 540L0 540z" /></clipPath><clipPath id="2"><path d="M0 539.9999L720 539.9999L720 539.9999L720 -0.0001220703L720 -0.0001220703L0 -0.0001220703z" /></clipPath><clipPath id="3"><path d="M0 539.9998L720 539.9998L720 539.9998L720 -0.0001831055L720 -0.0001831055L0 -0.0001831055z" /></clipPath><clipPath id="4"><path d="M0 539.9998L720 539.9998L720 539.9998L720 -0.0002441406L720 -0.0002441406L0 -0.0002441406z" /></clipPath><clipPath id="5"><path d="M-4.03E-07 0L720 0L720 0L720 539.9999L720 539.9999L-4.03E-07 539.9999" /></clipPath><clipPath id="6"><path d="M-4.03E-07 0L720 0L720 0L720 539.9999L720 539.9999L-4.03E-07 539.9999" /></clipPath><clipPath id="7"><path d="M-4.3E-07 539.9998L720 539.9998L720 539.9998L720 -0.0001831055L720 -0.0001831055L-4.3E-07 -0.0001831055z" /></clipPath><clipPath id="8"><path d="M219.94 180.12L261.9399 180.12L261.9399 180.12L261.9399 140.1196L261.9399 140.1196L219.94 140.1196z" /></clipPath><clipPath id="9"><path d="M-1.745E-06 539.9998L720 539.9998L720 539.9998L720 -0.0001831055L720 -0.0001831055L-1.745E-06 -0.0001831055z" /></clipPath><clipPath id="10"><path d="M365.63 180.12L407.6299 180.12L407.6299 180.12L407.6299 140.1196L407.6299 140.1196L365.63 140.1196z" /></clipPath></defs><g transform="matrix(1.333333 0 0 1.333333 0 0)"><g><g clip-path="url(#1)"><g clip-path="url(#2)"><path transform="matrix(1 0 0 -1 0 540)" d="M0 6.104E-06L720 6.104E-06L720 6.104E-06L720 540L720 540L0 540z" stroke="none" fill="#FFFFFF" fill-rule="evenodd" /></g><g clip-path="url(#3)"><g transform="matrix(0.3035357 0 0 0.3035371 -0.02252 22.07697)"><g transform="matrix(1 0 0 1 0 0)"><image x="0" y="0" xlink:href="img_01.png" width="84" height="1620" /></g></g></g><g clip-path="url(#4)"><path transform="matrix(1 0 0 -1 0 540)" d="M0 -1.4172L22.677 -1.4172L22.677 -1.4172L22.677 540.0028L22.677 540.0028L0 540.0028z" stroke="none" fill="#9BBB59" fill-rule="evenodd" fill-opacity="0.6901961" /></g><path transform="matrix(1 0 0 -1 0 540)" d="M36.814 464.99L694.45 463.68" stroke="#98B954" stroke-width="3" fill="none" /><g clip-path="url(#5)"><path transform="matrix(1 0 0 -1 0 540)" d="M39.65 343.4L48.154 337.73L48.154 337.73L39.65 332.06z" stroke="none" fill="#8064A2" fill-rule="evenodd" /></g><g clip-path="url(#6)"><path transform="matrix(1 0 0 -1 0 540)" d="M39.65 343.4L48.154 337.73L48.154 337.73L39.65 332.06z" stroke="#5C4776" stroke-width="2" fill="none" /></g><g clip-path="url(#7)"><g clip-path="url(#8)"><path transform="matrix(1 0 0 -1 0 540)" d="M221.9399 378.888L231.4389 378.888" stroke="#000000" stroke-width="0.499803" fill="none" /><path transform="matrix(1 0 0 -1 0 540)" d="M248.4364 378.888L259.1854 378.888" stroke="#000000" stroke-width="0.499803" fill="none" /></g></g><g clip-path="url(#9)"><g clip-path="url(#10)"><path transform="matrix(1 0 0 -1 0 540)" d="M367.6299 378.888L377.129 378.888" stroke="#000000" stroke-width="0.499803" fill="none" /><path transform="matrix(1 0 0 -1 0 540)" d="M394.1264 378.888L404.8754 378.888" stroke="#000000" stroke-width="0.499803" fill="none" /></g></g></g></g></g></svg>