<svg xmlns="http://www.w3.org/2000/svg" xmlns:xlink="http://www.w3.org/1999/xlink" id="body_107" preserveAspectRatio="xMinYMin meet" viewBox="0 0 960 720"><defs><clipPath id="1"><path d="M0 540L0 0L0 0L720 0L720 0L720 540L720 540L0 540z" /></clipPath><clipPath id="2"><path d="M0 539.9999L720 539.9999L720 539.9999L720 -0.0001220703L720 -0.0001220703L0 -0.0001220703z" /></clipPath><clipPath id="3"><path d="M0 539.9998L720 539.9998L720 539.9998L720 -0.0001831055L720 -0.0001831055L0 -0.0001831055z" /></clipPath><clipPath id="4"><path d="M0 539.9998L720 539.9998L720 539.9998L720 -0.0002441406L720 -0.0002441406L0 -0.0002441406z" /></clipPath></defs><g transform="matrix(1.333333 0 0 1.333333 0 0)"><g><g clip-path="url(#1)"><g clip-path="url(#2)"><path transform="matrix(1 0 0 -1 0 540)" d="M0 6.104E-06L720 6.104E-06L720 6.104E-06L720 540L720 540L0 540z" stroke="none" fill="#FFFFFF" fill-rule="evenodd" /></g><g clip-path="url(#3)"><g transform="matrix(0.3035357 0 0 0.3035371 -0.02252 22.07697)"><g transform="matrix(1 0 0 1 0 0)"><image x="0" y="0" xlink:href="img_01.png" width="84" height="1620" /></g></g></g><g clip-path="url(#4)"><path transform="matrix(1 0 0 -1 0 540)" d="M0 -1.4172L22.677 -1.4172L22.677 -1.4172L22.677 540.0028L22.677 540.0028L0 540.0028z" stroke="none" fill="#0070C0" fill-rule="evenodd" fill-opacity="0.6901961" /></g><path transform="matrix(1 0 0 -1 0 540)" d="M102.76 289.95L683.86 289.95L683.86 289.95L683.86 423.09L683.86 423.09L102.76 423.09z" stroke="none" fill="#B9CDE5" fill-rule="evenodd" /><path transform="matrix(1 0 0 -1 0 540)" d="M103.87 168.17L684.97 168.17L684.97 168.17L684.97 252.99L684.97 252.99L103.87 252.99z" stroke="none" fill="#B9CDE5" fill-rule="evenodd" /><path transform="matrix(1 0 0 -1 0 540)" d="M103.87 88.563L684.97 88.563L684.97 88.563L684.97 134.608L684.97 134.608L103.87 134.608z" stroke="none" fill="#B9CDE5" fill-rule="evenodd" /><path transform="matrix(1 0 0 -1 0 540)" d="M106.87 460.45L687.98 460.45" stroke="#0070C0" stroke-width="3" fill="none" /></g></g></g></svg>