<svg xmlns="http://www.w3.org/2000/svg" xmlns:xlink="http://www.w3.org/1999/xlink" id="body_32" preserveAspectRatio="xMinYMin meet" viewBox="0 0 960 720"><defs><clipPath id="1"><path d="M0 540L0 0L0 0L720 0L720 0L720 540L720 540L0 540z" /></clipPath><clipPath id="2"><path d="M0 539.9999L720 539.9999L720 539.9999L720 -0.0001220703L720 -0.0001220703L0 -0.0001220703z" /></clipPath><clipPath id="3"><path d="M0 539.9998L720 539.9998L720 539.9998L720 -0.0001831055L720 -0.0001831055L0 -0.0001831055z" /></clipPath><clipPath id="4"><path d="M0 539.9998L720 539.9998L720 539.9998L720 -0.0002441406L720 -0.0002441406L0 -0.0002441406z" /></clipPath><clipPath id="5"><path d="M-2.35E-07 539.9998L720 539.9998L720 539.9998L720 -0.0001831055L720 -0.0001831055L-2.35E-07 -0.0001831055z" /></clipPath><clipPath id="6"><path d="M-2.352E-06 539.9998L720 539.9998L720 539.9998L720 -0.0001831055L720 -0.0001831055L-2.352E-06 -0.0001831055z" /></clipPath><clipPath id="7"><path d="M-1.372E-06 539.9998L720 539.9998L720 539.9998L720 -0.0001831055L720 -0.0001831055L-1.372E-06 -0.0001831055z" /></clipPath><clipPath id="8"><path d="M140.9 292.28L187.9007 292.28L187.9007 292.28L187.9007 179.2827L187.9007 179.2827L140.9 179.2827z" /></clipPath><clipPath id="9"><path d="M-3.894E-06 539.9998L720 539.9998L720 539.9998L720 -0.0001831055L720 -0.0001831055L-3.894E-06 -0.0001831055z" /></clipPath><clipPath id="10"><path d="M441.37 266.25L490.3707 266.25L490.3707 266.25L490.3707 179.2537L490.3707 179.2537L441.37 179.2537z" /></clipPath><clipPath id="11"><path d="M-2.35E-07 539.9998L720 539.9998L720 539.9998L720 -0.0001831055L720 -0.0001831055L-2.35E-07 -0.0001831055z" /></clipPath><clipPath id="12"><path d="M-2.352E-06 539.9998L720 539.9998L720 539.9998L720 -0.0001831055L720 -0.0001831055L-2.352E-06 -0.0001831055z" /></clipPath><clipPath id="13"><path d="M-1.45E-07 539.9998L720 539.9998L720 539.9998L720 -0.0001831055L720 -0.0001831055L-1.45E-07 -0.0001831055z" /></clipPath><clipPath id="14"><path d="M115.88 472.724L212.8781 472.724L212.8781 472.724L212.8781 381.7249L212.8781 381.7249L115.88 381.7249z" /></clipPath><clipPath id="15"><path d="M-1.164E-06 539.9998L720 539.9998L720 539.9998L720 -0.0001831055L720 -0.0001831055L-1.164E-06 -0.0001831055z" /></clipPath><clipPath id="16"><path d="M414.37 466.724L517.3738 466.724L517.3738 466.724L517.3738 381.7223L517.3738 381.7223L414.37 381.7223z" /></clipPath></defs><g transform="matrix(1.333333 0 0 1.333333 0 0)"><g><g clip-path="url(#1)"><g clip-path="url(#2)"><path transform="matrix(1 0 0 -1 0 540)" d="M0 6.104E-06L720 6.104E-06L720 6.104E-06L720 540L720 540L0 540z" stroke="none" fill="#FFFFFF" fill-rule="evenodd" /></g><g clip-path="url(#3)"><g transform="matrix(0.3035357 0 0 0.3035371 -0.02252 22.07697)"><g transform="matrix(1 0 0 1 0 0)"><image x="0" y="0" xlink:href="img_01.png" width="84" height="1620" /></g></g></g><g clip-path="url(#4)"><path transform="matrix(1 0 0 -1 0 540)" d="M0 -1.4172L22.677 -1.4172L22.677 -1.4172L22.677 540.0028L22.677 540.0028L0 540.0028z" stroke="none" fill="#9BBB59" fill-rule="evenodd" fill-opacity="0.6901961" /></g><path transform="matrix(1 0 0 -1 0 540)" d="M36.814 464.99L694.45 463.68" stroke="#98B954" stroke-width="3" fill="none" /><g clip-path="url(#5)"><g transform="matrix(0.3274028 0 0 0.3252933 38.445 116.913)"><g transform="matrix(1 0 0 1 0 0)"><image x="0" y="0" xlink:href="img_03.png" width="72" height="75" /></g></g></g><g clip-path="url(#6)"><g transform="matrix(0.3274028 0 0 0.3252933 331.65 116.913)"><g transform="matrix(1 0 0 1 0 0)"><image x="0" y="0" xlink:href="img_03.png" width="72" height="75" /></g></g></g><path transform="matrix(1 0 0 -1 0 540)" d="M73.654 362.53C 73.654 367.79 77.911 372.04 83.162 372.04L83.162 372.04L265.44 372.04C 270.69 372.04 274.95 367.79 274.95 362.53L274.95 362.53L274.95 245.49C 274.95 240.24 270.69 235.98 265.44 235.98L265.44 235.98L83.162 235.98C 77.911 235.98 73.654 240.24 73.654 245.49z" stroke="#9BBB59" stroke-width="2.75" fill="none" /><g clip-path="url(#7)"><g clip-path="url(#8)"><path transform="matrix(1 0 0 -1 0 540)" d="M142.8996 339.812L158.1464 339.812" stroke="#000000" stroke-width="0.4998975" fill="none" /><path transform="matrix(1 0 0 -1 0 540)" d="M175.1434 339.812L185.3914 339.812" stroke="#000000" stroke-width="0.4998975" fill="none" /><path transform="matrix(1 0 0 -1 0 540)" d="M149.1483 293.7199L158.1464 293.7199" stroke="#000000" stroke-width="0.4998975" fill="none" /><path transform="matrix(1 0 0 -1 0 540)" d="M175.1434 293.7199L185.3914 293.7199" stroke="#000000" stroke-width="0.4998975" fill="none" /></g></g><path transform="matrix(1 0 0 -1 0 540)" d="M374.16 362.53C 374.16 367.79 378.42 372.04 383.67 372.04L383.67 372.04L565.95 372.04C 571.2 372.04 575.46 367.79 575.46 362.53L575.46 362.53L575.46 245.49C 575.46 240.24 571.2 235.98 565.95 235.98L565.95 235.98L383.67 235.98C 378.42 235.98 374.16 240.24 374.16 245.49z" stroke="#9BBB59" stroke-width="2.75" fill="none" /><g clip-path="url(#9)"><g clip-path="url(#10)"><path transform="matrix(1 0 0 -1 0 540)" d="M448.432 339.6252L457.6812 339.6252" stroke="#000000" stroke-width="0.4998659" fill="none" /><path transform="matrix(1 0 0 -1 0 540)" d="M474.6792 339.6252L483.9283 339.6252" stroke="#000000" stroke-width="0.4998659" fill="none" /></g></g><g clip-path="url(#11)"><g transform="matrix(0.3274028 0 0 0.3252933 38.445 315.363)"><g transform="matrix(1 0 0 1 0 0)"><image x="0" y="0" xlink:href="img_03.png" width="72" height="75" /></g></g></g><g clip-path="url(#12)"><g transform="matrix(0.3274028 0 0 0.3252933 331.65 315.363)"><g transform="matrix(1 0 0 1 0 0)"><image x="0" y="0" xlink:href="img_03.png" width="72" height="75" /></g></g></g><path transform="matrix(1 0 0 -1 0 540)" d="M73.654 164.09C 73.654 169.34 77.911 173.6 83.162 173.6L83.162 173.6L265.44 173.6C 270.69 173.6 274.95 169.34 274.95 164.09L274.95 164.09L274.95 47.041C 274.95 41.79 270.69 37.533 265.44 37.533L265.44 37.533L83.162 37.533C 77.911 37.533 73.654 41.79 73.654 47.041z" stroke="#9BBB59" stroke-width="2.75" fill="none" /><g clip-path="url(#13)"><g clip-path="url(#14)"><path transform="matrix(1 0 0 -1 0 540)" d="M117.8797 137.4027L149.6297 137.4027" stroke="#000000" stroke-width="0.4999355" fill="none" /><path transform="matrix(1 0 0 -1 0 540)" d="M166.6301 137.4027L175.38 137.4027" stroke="#000000" stroke-width="0.4999355" fill="none" /></g></g><path transform="matrix(1 0 0 -1 0 540)" d="M374.16 164.09C 374.16 169.34 378.42 173.6 383.67 173.6L383.67 173.6L565.95 173.6C 571.2 173.6 575.46 169.34 575.46 164.09L575.46 164.09L575.46 47.041C 575.46 41.79 571.2 37.533 565.95 37.533L565.95 37.533L383.67 37.533C 378.42 37.533 374.16 41.79 374.16 47.041z" stroke="#9BBB59" stroke-width="2.75" fill="none" /><g clip-path="url(#15)"><g clip-path="url(#16)"><path transform="matrix(1 0 0 -1 0 540)" d="M429.8729 137.1552L460.878 137.1552" stroke="#000000" stroke-width="0.4999129" fill="none" /><path transform="matrix(1 0 0 -1 0 540)" d="M477.8807 137.1552L509.1363 137.1552" stroke="#000000" stroke-width="0.4999129" fill="none" /></g></g></g></g></g></svg>