<svg xmlns="http://www.w3.org/2000/svg" xmlns:xlink="http://www.w3.org/1999/xlink" id="body_9" preserveAspectRatio="xMinYMin meet" viewBox="0 0 960 720"><defs><clipPath id="1"><path d="M0 540L0 0L0 0L720 0L720 0L720 540L720 540L0 540z" /></clipPath><clipPath id="2"><path d="M0 539.9999L720 539.9999L720 539.9999L720 -0.0001220703L720 -0.0001220703L0 -0.0001220703z" /></clipPath><clipPath id="3"><path d="M0 539.9998L720 539.9998L720 539.9998L720 -0.0001831055L720 -0.0001831055L0 -0.0001831055z" /></clipPath><clipPath id="4"><path d="M0 539.9998L720 539.9998L720 539.9998L720 -0.0002441406L720 -0.0002441406L0 -0.0002441406z" /></clipPath></defs><g transform="matrix(1.333333 0 0 1.333333 0 0)"><g><g clip-path="url(#1)"><g clip-path="url(#2)"><path transform="matrix(1 0 0 -1 0 540)" d="M0 6.104E-06L720 6.104E-06L720 6.104E-06L720 540L720 540L0 540z" stroke="none" fill="#FFFFFF" fill-rule="evenodd" /></g><g clip-path="url(#3)"><g transform="matrix(0.3035357 0 0 0.3035371 -0.02252 22.07697)"><g transform="matrix(1 0 0 1 0 0)"><image x="0" y="0" xlink:href="img_01.png" width="84" height="1620" /></g></g></g><g clip-path="url(#4)"><path transform="matrix(1 0 0 -1 0 540)" d="M0 -1.4172L22.677 -1.4172L22.677 -1.4172L22.677 540.0028L22.677 540.0028L0 540.0028z" stroke="none" fill="#9BBB59" fill-rule="evenodd" fill-opacity="0.6901961" /></g><path transform="matrix(1 0 0 -1 0 540)" d="M36.814 464.99L694.45 463.68" stroke="#98B954" stroke-width="3" fill="none" /><path transform="matrix(1 0 0 -1 0 540)" d="M82.174 376.39C 82.174 379.52 84.712 382.06 87.843 382.06L87.843 382.06L189.89 382.06C 193.02 382.06 195.56 379.52 195.56 376.39L195.56 376.39L195.56 353.71C 195.56 350.58 193.02 348.04 189.89 348.04L189.89 348.04L87.843 348.04C 84.712 348.04 82.174 350.58 82.174 353.71z" stroke="none" fill="#4F6228" fill-rule="evenodd" /><path transform="matrix(1 0 0 -1 0 540)" d="M82.174 376.39C 82.174 379.52 84.712 382.06 87.843 382.06L87.843 382.06L189.89 382.06C 193.02 382.06 195.56 379.52 195.56 376.39L195.56 376.39L195.56 353.71C 195.56 350.58 193.02 348.04 189.89 348.04L189.89 348.04L87.843 348.04C 84.712 348.04 82.174 350.58 82.174 353.71z" stroke="#4F6228" stroke-width="2" fill="none" /><path transform="matrix(1 0 0 -1 0 540)" d="M232.7 376.39C 232.7 379.52 235.23 382.06 238.36 382.06L238.36 382.06L340.41 382.06C 343.54 382.06 346.08 379.52 346.08 376.39L346.08 376.39L346.08 353.71C 346.08 350.58 343.54 348.04 340.41 348.04L340.41 348.04L238.36 348.04C 235.23 348.04 232.7 350.58 232.7 353.71z" stroke="none" fill="#4F6228" fill-rule="evenodd" /><path transform="matrix(1 0 0 -1 0 540)" d="M232.7 376.39C 232.7 379.52 235.23 382.06 238.36 382.06L238.36 382.06L340.41 382.06C 343.54 382.06 346.08 379.52 346.08 376.39L346.08 376.39L346.08 353.71C 346.08 350.58 343.54 348.04 340.41 348.04L340.41 348.04L238.36 348.04C 235.23 348.04 232.7 350.58 232.7 353.71z" stroke="#4F6228" stroke-width="2" fill="none" /><path transform="matrix(1 0 0 -1 0 540)" d="M383.22 376.39C 383.22 379.52 385.75 382.06 388.89 382.06L388.89 382.06L490.93 382.06C 494.06 382.06 496.6 379.52 496.6 376.39L496.6 376.39L496.6 353.71C 496.6 350.58 494.06 348.04 490.93 348.04L490.93 348.04L388.89 348.04C 385.75 348.04 383.22 350.58 383.22 353.71z" stroke="none" fill="#4F6228" fill-rule="evenodd" /><path transform="matrix(1 0 0 -1 0 540)" d="M383.22 376.39C 383.22 379.52 385.75 382.06 388.89 382.06L388.89 382.06L490.93 382.06C 494.06 382.06 496.6 379.52 496.6 376.39L496.6 376.39L496.6 353.71C 496.6 350.58 494.06 348.04 490.93 348.04L490.93 348.04L388.89 348.04C 385.75 348.04 383.22 350.58 383.22 353.71z" stroke="#4F6228" stroke-width="2" fill="none" /><path transform="matrix(1 0 0 -1 0 540)" d="M533.74 376.39C 533.74 379.52 536.28 382.06 539.41 382.06L539.41 382.06L649.17 382.06C 652.3 382.06 654.84 379.52 654.84 376.39L654.84 376.39L654.84 353.71C 654.84 350.58 652.3 348.04 649.17 348.04L649.17 348.04L539.41 348.04C 536.28 348.04 533.74 350.58 533.74 353.71z" stroke="none" fill="#4F6228" fill-rule="evenodd" /><path transform="matrix(1 0 0 -1 0 540)" d="M533.74 376.39C 533.74 379.52 536.28 382.06 539.41 382.06L539.41 382.06L649.17 382.06C 652.3 382.06 654.84 379.52 654.84 376.39L654.84 376.39L654.84 353.71C 654.84 350.58 652.3 348.04 649.17 348.04L649.17 348.04L539.41 348.04C 536.28 348.04 533.74 350.58 533.74 353.71z" stroke="#4F6228" stroke-width="2" fill="none" /><path transform="matrix(1 0 0 -1 0 540)" d="M195.56 364.73L232.7 365.38" stroke="#77933C" stroke-width="1.5" fill="none" /><path transform="matrix(1 0 0 -1 0 540)" d="M345.21 364.73L382.35 365.38" stroke="#77933C" stroke-width="1.5" fill="none" /><path transform="matrix(1 0 0 -1 0 540)" d="M494.87 364.73L532.01 365.38" stroke="#77933C" stroke-width="1.5" fill="none" /><path transform="matrix(1 0 0 -1 0 540)" d="M82.174 330.4C 82.174 333.53 84.712 336.07 87.843 336.07L87.843 336.07L189.89 336.07C 193.02 336.07 195.56 333.53 195.56 330.4L195.56 330.4L195.56 307.72C 195.56 304.59 193.02 302.05 189.89 302.05L189.89 302.05L87.843 302.05C 84.712 302.05 82.174 304.59 82.174 307.72z" stroke="none" fill="#77933C" fill-rule="evenodd" /><path transform="matrix(1 0 0 -1 0 540)" d="M82.174 330.4C 82.174 333.53 84.712 336.07 87.843 336.07L87.843 336.07L189.89 336.07C 193.02 336.07 195.56 333.53 195.56 330.4L195.56 330.4L195.56 307.72C 195.56 304.59 193.02 302.05 189.89 302.05L189.89 302.05L87.843 302.05C 84.712 302.05 82.174 304.59 82.174 307.72z" stroke="#77933C" stroke-width="2" fill="none" /><path transform="matrix(1 0 0 -1 0 540)" d="M232.7 330.4C 232.7 333.53 235.23 336.07 238.36 336.07L238.36 336.07L340.41 336.07C 343.54 336.07 346.08 333.53 346.08 330.4L346.08 330.4L346.08 307.72C 346.08 304.59 343.54 302.05 340.41 302.05L340.41 302.05L238.36 302.05C 235.23 302.05 232.7 304.59 232.7 307.72z" stroke="none" fill="#77933C" fill-rule="evenodd" /><path transform="matrix(1 0 0 -1 0 540)" d="M232.7 330.4C 232.7 333.53 235.23 336.07 238.36 336.07L238.36 336.07L340.41 336.07C 343.54 336.07 346.08 333.53 346.08 330.4L346.08 330.4L346.08 307.72C 346.08 304.59 343.54 302.05 340.41 302.05L340.41 302.05L238.36 302.05C 235.23 302.05 232.7 304.59 232.7 307.72z" stroke="#77933C" stroke-width="2" fill="none" /><path transform="matrix(1 0 0 -1 0 540)" d="M383.22 330.4C 383.22 333.53 385.75 336.07 388.89 336.07L388.89 336.07L490.93 336.07C 494.06 336.07 496.6 333.53 496.6 330.4L496.6 330.4L496.6 307.72C 496.6 304.59 494.06 302.05 490.93 302.05L490.93 302.05L388.89 302.05C 385.75 302.05 383.22 304.59 383.22 307.72z" stroke="none" fill="#77933C" fill-rule="evenodd" /><path transform="matrix(1 0 0 -1 0 540)" d="M383.22 330.4C 383.22 333.53 385.75 336.07 388.89 336.07L388.89 336.07L490.93 336.07C 494.06 336.07 496.6 333.53 496.6 330.4L496.6 330.4L496.6 307.72C 496.6 304.59 494.06 302.05 490.93 302.05L490.93 302.05L388.89 302.05C 385.75 302.05 383.22 304.59 383.22 307.72z" stroke="#77933C" stroke-width="2" fill="none" /><path transform="matrix(1 0 0 -1 0 540)" d="M533.74 330.4C 533.74 333.53 536.28 336.07 539.41 336.07L539.41 336.07L649.17 336.07C 652.3 336.07 654.84 333.53 654.84 330.4L654.84 330.4L654.84 307.72C 654.84 304.59 652.3 302.05 649.17 302.05L649.17 302.05L539.41 302.05C 536.28 302.05 533.74 304.59 533.74 307.72z" stroke="none" fill="#77933C" fill-rule="evenodd" /><path transform="matrix(1 0 0 -1 0 540)" d="M533.74 330.4C 533.74 333.53 536.28 336.07 539.41 336.07L539.41 336.07L649.17 336.07C 652.3 336.07 654.84 333.53 654.84 330.4L654.84 330.4L654.84 307.72C 654.84 304.59 652.3 302.05 649.17 302.05L649.17 302.05L539.41 302.05C 536.28 302.05 533.74 304.59 533.74 307.72z" stroke="#77933C" stroke-width="2" fill="none" /><path transform="matrix(1 0 0 -1 0 540)" d="M195.56 318.73L232.7 319.38" stroke="#77933C" stroke-width="1.5" fill="none" /><path transform="matrix(1 0 0 -1 0 540)" d="M345.21 318.73L382.35 319.38" stroke="#77933C" stroke-width="1.5" fill="none" /><path transform="matrix(1 0 0 -1 0 540)" d="M494.87 318.73L532.01 319.38" stroke="#77933C" stroke-width="1.5" fill="none" /><path transform="matrix(1 0 0 -1 0 540)" d="M184.23 218.88C 184.23 225.19 189.35 230.31 195.66 230.31L195.66 230.31L342.9 230.31C 349.21 230.31 354.33 225.19 354.33 218.88L354.33 218.88L354.33 173.17C 354.33 166.86 349.21 161.74 342.9 161.74L342.9 161.74L195.66 161.74C 189.35 161.74 184.23 166.86 184.23 173.17z" stroke="#4F6228" stroke-width="2" fill="none" /><path transform="matrix(1 0 0 -1 0 540)" d="M374.98 218.88C 374.98 225.19 380.1 230.31 386.41 230.31L386.41 230.31L533.65 230.31C 539.96 230.31 545.08 225.19 545.08 218.88L545.08 218.88L545.08 173.17C 545.08 166.86 539.96 161.74 533.65 161.74L533.65 161.74L386.41 161.74C 380.1 161.74 374.98 166.86 374.98 173.17z" stroke="#4F6228" stroke-width="2" fill="none" /><path transform="matrix(1 0 0 -1 0 540)" d="M461.84 195.03L476.02 195.03" stroke="#000000" stroke-width="0.75" fill="none" /><path transform="matrix(1 0 0 -1 0 540)" d="M492.3 195.03L506.48 195.03" stroke="#000000" stroke-width="0.75" fill="none" /></g></g></g></svg>