<svg xmlns="http://www.w3.org/2000/svg" xmlns:xlink="http://www.w3.org/1999/xlink" id="body_77" preserveAspectRatio="xMinYMin meet" viewBox="0 0 960 720"><defs><clipPath id="1"><path d="M0 540L0 0L0 0L720 0L720 0L720 540L720 540L0 540z" /></clipPath><clipPath id="2"><path d="M0 539.9999L720 539.9999L720 539.9999L720 -0.0001220703L720 -0.0001220703L0 -0.0001220703z" /></clipPath><clipPath id="3"><path d="M0 539.9998L720 539.9998L720 539.9998L720 -0.0001831055L720 -0.0001831055L0 -0.0001831055z" /></clipPath><clipPath id="4"><path d="M0 539.9998L720 539.9998L720 539.9998L720 -0.0002441406L720 -0.0002441406L0 -0.0002441406z" /></clipPath><clipPath id="5"><path d="M-2.35E-07 539.9998L720 539.9998L720 539.9998L720 -0.0001831055L720 -0.0001831055L-2.35E-07 -0.0001831055z" /></clipPath><clipPath id="6"><path d="M-5.73E-07 0L720 0L720 0L720 539.9999L720 539.9999L-5.73E-07 539.9999" /></clipPath><clipPath id="7"><path d="M-5.73E-07 0L720 0L720 0L720 539.9999L720 539.9999L-5.73E-07 539.9999" /></clipPath></defs><g transform="matrix(1.333333 0 0 1.333333 0 0)"><g><g clip-path="url(#1)"><g clip-path="url(#2)"><path transform="matrix(1 0 0 -1 0 540)" d="M0 6.104E-06L720 6.104E-06L720 6.104E-06L720 540L720 540L0 540z" stroke="none" fill="#FFFFFF" fill-rule="evenodd" /></g><g clip-path="url(#3)"><g transform="matrix(0.3035357 0 0 0.3035371 -0.02252 22.07697)"><g transform="matrix(1 0 0 1 0 0)"><image x="0" y="0" xlink:href="img_01.png" width="84" height="1620" /></g></g></g><g clip-path="url(#4)"><path transform="matrix(1 0 0 -1 0 540)" d="M0 -1.4172L22.677 -1.4172L22.677 -1.4172L22.677 540.0028L22.677 540.0028L0 540.0028z" stroke="none" fill="#9BBB59" fill-rule="evenodd" fill-opacity="0.6901961" /></g><path transform="matrix(1 0 0 -1 0 540)" d="M36.814 464.99L694.45 463.68" stroke="#98B954" stroke-width="3" fill="none" /><path transform="matrix(1 0 0 -1 0 540)" d="M198.96 323.51L269.477 323.51L269.477 323.51L269.477 334.85L269.477 334.85L198.96 334.85z" stroke="none" fill="#4F6228" fill-rule="evenodd" /><path transform="matrix(1 0 0 -1 0 540)" d="M198.96 323.51L269.477 323.51L269.477 323.51L269.477 334.85L269.477 334.85L198.96 334.85z" stroke="#4F6228" stroke-width="2" fill="none" /><path transform="matrix(1 0 0 -1 0 540)" d="M269.7 323.51L340.217 323.51L340.217 323.51L340.217 334.85L340.217 334.85L269.7 334.85z" stroke="none" fill="#FFFFFF" fill-rule="evenodd" /><path transform="matrix(1 0 0 -1 0 540)" d="M269.7 323.51L340.217 323.51L340.217 323.51L340.217 334.85L340.217 334.85L269.7 334.85z" stroke="#4F6228" stroke-width="2" fill="none" /><path transform="matrix(1 0 0 -1 0 540)" d="M341.16 323.51L411.677 323.51L411.677 323.51L411.677 334.85L411.677 334.85L341.16 334.85z" stroke="none" fill="#4F6228" fill-rule="evenodd" /><path transform="matrix(1 0 0 -1 0 540)" d="M341.16 323.51L411.677 323.51L411.677 323.51L411.677 334.85L411.677 334.85L341.16 334.85z" stroke="#4F6228" stroke-width="2" fill="none" /><path transform="matrix(1 0 0 -1 0 540)" d="M411.9 323.51L482.417 323.51L482.417 323.51L482.417 334.85L482.417 334.85L411.9 334.85z" stroke="none" fill="#FFFFFF" fill-rule="evenodd" /><path transform="matrix(1 0 0 -1 0 540)" d="M411.9 323.51L482.417 323.51L482.417 323.51L482.417 334.85L482.417 334.85L411.9 334.85z" stroke="#4F6228" stroke-width="2" fill="none" /><path transform="matrix(1 0 0 -1 0 540)" d="M146.46 352.1C 146.46 360.54 153.31 367.39 161.75 367.39L161.75 367.39L526.15 367.39C 534.59 367.39 541.44 360.54 541.44 352.1L541.44 352.1L541.44 290.96C 541.44 282.51 534.59 275.67 526.15 275.67L526.15 275.67L161.75 275.67C 153.31 275.67 146.46 282.51 146.46 290.96z" stroke="#4F6228" stroke-width="2" fill="none" /><g clip-path="url(#5)"><g transform="matrix(0.3274028 0 0 0.3252933 38.445 298.353)"><g transform="matrix(1 0 0 1 0 0)"><image x="0" y="0" xlink:href="img_03.png" width="72" height="75" /></g></g></g><path transform="matrix(1 0 0 -1 0 540)" d="M74.7 203.4C 74.7 206.28 77.037 208.62 79.92 208.62L79.92 208.62L636.41 208.62C 639.29 208.62 641.63 206.28 641.63 203.4L641.63 203.4L641.63 139.14C 641.63 136.26 639.29 133.92 636.41 133.92L636.41 133.92L79.92 133.92C 77.037 133.92 74.7 136.26 74.7 139.14z" stroke="#9BBB59" stroke-width="2.75" fill="none" /><g clip-path="url(#6)"><path transform="matrix(1 0 0 -1 0 540)" d="M60.463 213.3L68.967 207.63L68.967 207.63L60.463 201.96z" stroke="none" fill="#8064A2" fill-rule="evenodd" /></g><g clip-path="url(#7)"><path transform="matrix(1 0 0 -1 0 540)" d="M60.463 213.3L68.967 207.63L68.967 207.63L60.463 201.96z" stroke="#5C4776" stroke-width="2" fill="none" /></g></g></g></g></svg>