<svg xmlns="http://www.w3.org/2000/svg" xmlns:xlink="http://www.w3.org/1999/xlink" id="body_27" preserveAspectRatio="xMinYMin meet" viewBox="0 0 960 720"><defs><clipPath id="1"><path d="M0 540L0 0L0 0L720 0L720 0L720 540L720 540L0 540z" /></clipPath><clipPath id="2"><path d="M0 539.9999L720 539.9999L720 539.9999L720 -0.0001220703L720 -0.0001220703L0 -0.0001220703z" /></clipPath><clipPath id="3"><path d="M0 539.9998L720 539.9998L720 539.9998L720 -0.0001831055L720 -0.0001831055L0 -0.0001831055z" /></clipPath><clipPath id="4"><path d="M0 539.9998L720 539.9998L720 539.9998L720 -0.0002441406L720 -0.0002441406L0 -0.0002441406z" /></clipPath><clipPath id="5"><path d="M-2.35E-07 539.9998L720 539.9998L720 539.9998L720 -0.0001831055L720 -0.0001831055L-2.35E-07 -0.0001831055z" /></clipPath><clipPath id="6"><path d="M-3.52E-07 539.9998L720 539.9998L720 539.9998L720 -0.0001831055L720 -0.0001831055L-3.52E-07 -0.0001831055z" /></clipPath></defs><g transform="matrix(1.333333 0 0 1.333333 0 0)"><g><g clip-path="url(#1)"><g clip-path="url(#2)"><path transform="matrix(1 0 0 -1 0 540)" d="M0 6.104E-06L720 6.104E-06L720 6.104E-06L720 540L720 540L0 540z" stroke="none" fill="#FCD5B5" fill-rule="evenodd" /></g><g clip-path="url(#3)"><g transform="matrix(0.3035357 0 0 0.3035371 -0.02252 22.07697)"><g transform="matrix(1 0 0 1 0 0)"><image x="0" y="0" xlink:href="img_01.png" width="84" height="1620" /></g></g></g><g clip-path="url(#4)"><path transform="matrix(1 0 0 -1 0 540)" d="M0 -1.4172L22.677 -1.4172L22.677 -1.4172L22.677 540.0028L22.677 540.0028L0 540.0028z" stroke="none" fill="#9BBB59" fill-rule="evenodd" fill-opacity="0.6901961" /></g><path transform="matrix(1 0 0 -1 0 540)" d="M36.814 464.99L694.45 463.68" stroke="#98B954" stroke-width="3" fill="none" /><g clip-path="url(#5)"><g transform="matrix(0.3274028 0 0 0.3252933 38.445 116.913)"><g transform="matrix(1 0 0 1 0 0)"><image x="0" y="0" xlink:href="img_03.png" width="72" height="75" /></g></g></g><path transform="matrix(1 0 0 -1 0 540)" d="M87.694 362.41L649.1639 362.41L649.1639 362.41L649.1639 389.068L649.1639 389.068L87.694 389.068z" stroke="#4F6228" stroke-width="1.5" fill="none" /><g clip-path="url(#6)"><g transform="matrix(0.3274028 0 0 0.3252933 38.518 234.643)"><g transform="matrix(1 0 0 1 0 0)"><image x="0" y="0" xlink:href="img_03.png" width="72" height="75" /></g></g></g><path transform="matrix(1 0 0 -1 0 540)" d="M104.85 126.73C 104.85 133.75 110.54 139.43 117.55 139.43L117.55 139.43L636.47 139.43C 643.48 139.43 649.17 133.75 649.17 126.73L649.17 126.73L649.17 75.938C 649.17 68.925 643.48 63.239 636.47 63.239L636.47 63.239L117.55 63.239C 110.54 63.239 104.85 68.925 104.85 75.938z" stroke="#4F6228" stroke-width="2" fill="none" /><path transform="matrix(1 0 0 -1 0 540)" d="M84.007 259.21C 84.007 263.12 87.18 266.3 91.094 266.3C 95.008 266.3 98.18 263.12 98.18 259.21C 98.18 255.3 95.008 252.12 91.094 252.12C 87.18 252.12 84.007 255.3 84.007 259.21z" stroke="#000000" stroke-width="1" fill="none" /><path transform="matrix(1 0 0 -1 0 540)" d="M84.007 229.65C 84.007 233.56 87.18 236.73 91.094 236.73C 95.008 236.73 98.18 233.56 98.18 229.65C 98.18 225.73 95.008 222.56 91.094 222.56C 87.18 222.56 84.007 225.73 84.007 229.65z" stroke="#000000" stroke-width="1" fill="none" /><path transform="matrix(1 0 0 -1 0 540)" d="M84.007 200.09C 84.007 204 87.18 207.17 91.094 207.17C 95.008 207.17 98.18 204 98.18 200.09C 98.18 196.17 95.008 193 91.094 193C 87.18 193 84.007 196.17 84.007 200.09z" stroke="#000000" stroke-width="1" fill="none" /><path transform="matrix(1 0 0 -1 0 540)" d="M84.007 170.52C 84.007 174.44 87.18 177.61 91.094 177.61C 95.008 177.61 98.18 174.44 98.18 170.52C 98.18 166.61 95.008 163.44 91.094 163.44C 87.18 163.44 84.007 166.61 84.007 170.52z" stroke="#000000" stroke-width="1" fill="none" /><path transform="matrix(1 0 0 -1 0 540)" d="M78.492 200.12C 78.492 207.08 84.134 212.73 91.094 212.73C 98.054 212.73 103.7 207.08 103.7 200.12C 103.7 193.17 98.054 187.52 91.094 187.52C 84.134 187.52 78.492 193.17 78.492 200.12z" stroke="#FF0000" stroke-width="2" fill="none" /><path transform="matrix(1 0 0 -1 0 540)" d="M78.492 228.82C 78.492 235.78 84.134 241.43 91.094 241.43C 98.054 241.43 103.7 235.78 103.7 228.82C 103.7 221.86 98.054 216.22 91.094 216.22C 84.134 216.22 78.492 221.86 78.492 228.82z" stroke="#FF0000" stroke-width="2" fill="none" /></g></g></g></svg>