<svg xmlns="http://www.w3.org/2000/svg" xmlns:xlink="http://www.w3.org/1999/xlink" id="body_52" preserveAspectRatio="xMinYMin meet" viewBox="0 0 960 720"><defs><clipPath id="1"><path d="M0 540L0 0L0 0L720 0L720 0L720 540L720 540L0 540z" /></clipPath><clipPath id="2"><path d="M0 539.9999L720 539.9999L720 539.9999L720 -0.0001220703L720 -0.0001220703L0 -0.0001220703z" /></clipPath><clipPath id="3"><path d="M0 539.9998L720 539.9998L720 539.9998L720 -0.0001831055L720 -0.0001831055L0 -0.0001831055z" /></clipPath><clipPath id="4"><path d="M0 539.9998L720 539.9998L720 539.9998L720 -0.0002441406L720 -0.0002441406L0 -0.0002441406z" /></clipPath><clipPath id="5"><path d="M-2.35E-07 539.9998L720 539.9998L720 539.9998L720 -0.0001831055L720 -0.0001831055L-2.35E-07 -0.0001831055z" /></clipPath><clipPath id="6"><path d="M-1.392E-06 539.9998L720 539.9998L720 539.9998L720 -0.0001831055L720 -0.0001831055L-1.392E-06 -0.0001831055z" /></clipPath><clipPath id="7"><path d="M139.22 370.27L207.2198 370.27L207.2198 370.27L207.2198 310.2696L207.2198 310.2696L139.22 310.2696z" /></clipPath><clipPath id="8"><path d="M-2.374E-06 539.9998L720 539.9998L720 539.9998L720 -0.0001831055L720 -0.0001831055L-2.374E-06 -0.0001831055z" /></clipPath><clipPath id="9"><path d="M312.88 374.12L398.877 374.12L398.877 374.12L398.877 310.1206L398.877 310.1206L312.88 310.1206z" /></clipPath><clipPath id="10"><path d="M-5.974E-06 539.9998L720 539.9998L720 539.9998L720 -0.0001831055L720 -0.0001831055L-5.974E-06 -0.0001831055z" /></clipPath><clipPath id="11"><path d="M522.87 374.12L603.8705 374.12L603.8705 374.12L603.8705 310.1206L603.8705 310.1206L522.87 310.1206z" /></clipPath></defs><g transform="matrix(1.333333 0 0 1.333333 0 0)"><g><g clip-path="url(#1)"><g clip-path="url(#2)"><path transform="matrix(1 0 0 -1 0 540)" d="M0 6.104E-06L720 6.104E-06L720 6.104E-06L720 540L720 540L0 540z" stroke="none" fill="#FFFFFF" fill-rule="evenodd" /></g><g clip-path="url(#3)"><g transform="matrix(0.3035357 0 0 0.3035371 -0.02252 22.07697)"><g transform="matrix(1 0 0 1 0 0)"><image x="0" y="0" xlink:href="img_01.png" width="84" height="1620" /></g></g></g><g clip-path="url(#4)"><path transform="matrix(1 0 0 -1 0 540)" d="M0 -1.4172L22.677 -1.4172L22.677 -1.4172L22.677 540.0028L22.677 540.0028L0 540.0028z" stroke="none" fill="#9BBB59" fill-rule="evenodd" fill-opacity="0.6901961" /></g><path transform="matrix(1 0 0 -1 0 540)" d="M36.814 464.99L694.45 463.68" stroke="#98B954" stroke-width="3" fill="none" /><g clip-path="url(#5)"><g transform="matrix(0.3274028 0 0 0.3252933 38.445 116.913)"><g transform="matrix(1 0 0 1 0 0)"><image x="0" y="0" xlink:href="img_03.png" width="72" height="75" /></g></g></g><path transform="matrix(1 0 0 -1 0 540)" d="M62.018 288.57C 62.018 297.1 68.936 304.02 77.47 304.02L77.47 304.02L667.73 304.02C 676.27 304.02 683.19 297.1 683.19 288.57L683.19 288.57L683.19 98.345C 683.19 89.811 676.27 82.893 667.73 82.893L667.73 82.893L77.47 82.893C 68.936 82.893 62.018 89.811 62.018 98.345z" stroke="#9BBB59" stroke-width="2.75" fill="none" /><g clip-path="url(#6)"><g clip-path="url(#7)"><path transform="matrix(1 0 0 -1 0 540)" d="M141.2199 209.1703L164.4656 209.1703" stroke="#000000" stroke-width="0.4999771" fill="none" /><path transform="matrix(1 0 0 -1 0 540)" d="M181.4622 209.1703L189.7112 209.1703" stroke="#000000" stroke-width="0.4999771" fill="none" /></g></g><g clip-path="url(#8)"><g clip-path="url(#9)"></g></g><g clip-path="url(#10)"><g clip-path="url(#11)"></g></g><path transform="matrix(1 0 0 -1 0 540)" d="M252.27 303.03L252.27 82.893" stroke="#98B954" stroke-width="0.75" fill="none" /><path transform="matrix(1 0 0 -1 0 540)" d="M462.06 304.02L462.06 83.881" stroke="#98B954" stroke-width="0.75" fill="none" /></g></g></g></svg>