<svg xmlns="http://www.w3.org/2000/svg" xmlns:xlink="http://www.w3.org/1999/xlink" id="body_91" preserveAspectRatio="xMinYMin meet" viewBox="0 0 960 720"><defs><clipPath id="1"><path d="M0 540L0 0L0 0L720 0L720 0L720 540L720 540L0 540z" /></clipPath><clipPath id="2"><path d="M0 539.9999L720 539.9999L720 539.9999L720 -0.0001220703L720 -0.0001220703L0 -0.0001220703z" /></clipPath><clipPath id="3"><path d="M0 539.9998L720 539.9998L720 539.9998L720 -0.0001831055L720 -0.0001831055L0 -0.0001831055z" /></clipPath><clipPath id="4"><path d="M0 539.9998L720 539.9998L720 539.9998L720 -0.0002441406L720 -0.0002441406L0 -0.0002441406z" /></clipPath><clipPath id="5"><path d="M-8.3E-07 0L720 0L720 0L720 539.9999L720 539.9999L-8.3E-07 539.9999" /></clipPath><clipPath id="6"><path d="M-8.3E-07 0L720 0L720 0L720 539.9999L720 539.9999L-8.3E-07 539.9999" /></clipPath></defs><g transform="matrix(1.333333 0 0 1.333333 0 0)"><g><g clip-path="url(#1)"><g clip-path="url(#2)"><path transform="matrix(1 0 0 -1 0 540)" d="M0 6.104E-06L720 6.104E-06L720 6.104E-06L720 540L720 540L0 540z" stroke="none" fill="#FFFFFF" fill-rule="evenodd" /></g><g clip-path="url(#3)"><g transform="matrix(0.3035357 0 0 0.3035371 -0.02252 22.07697)"><g transform="matrix(1 0 0 1 0 0)"><image x="0" y="0" xlink:href="img_01.png" width="84" height="1620" /></g></g></g><g clip-path="url(#4)"><path transform="matrix(1 0 0 -1 0 540)" d="M0 -1.4172L22.677 -1.4172L22.677 -1.4172L22.677 540.0028L22.677 540.0028L0 540.0028z" stroke="none" fill="#9BBB59" fill-rule="evenodd" fill-opacity="0.6901961" /></g><path transform="matrix(1 0 0 -1 0 540)" d="M36.814 464.99L694.45 463.68" stroke="#98B954" stroke-width="3" fill="none" /><path transform="matrix(1 0 0 -1 0 540)" d="M209.77 247.31L225.79 247.31L225.79 247.31L241.81 247.31L241.81 247.31L241.81 246.23L241.81 246.23L225.79 246.23L225.79 246.23L209.77 246.23z" stroke="none" fill="#000000" fill-rule="evenodd" /><path transform="matrix(1 0 0 -1 0 540)" d="M116.19 266.91C 116.19 272.12 120.42 276.36 125.64 276.36L125.64 276.36L293.85 276.36C 299.07 276.36 303.3 272.12 303.3 266.91L303.3 266.91L303.3 229.11C 303.3 223.89 299.07 219.66 293.85 219.66L293.85 219.66L125.64 219.66C 120.42 219.66 116.19 223.89 116.19 229.11z" stroke="#77933C" stroke-width="2" fill="none" /><path transform="matrix(1 0 0 -1 0 540)" d="M447.93 244.68L469.65 244.68L469.65 244.68L469.65 245.76L469.65 245.76L447.93 245.76z" stroke="none" fill="#000000" fill-rule="evenodd" /><path transform="matrix(1 0 0 -1 0 540)" d="M491.01 244.68L504.33 244.68L504.33 244.68L504.33 245.76L504.33 245.76L491.01 245.76z" stroke="none" fill="#000000" fill-rule="evenodd" /><path transform="matrix(1 0 0 -1 0 540)" d="M323.37 266.91C 323.37 272.12 327.6 276.36 332.82 276.36L332.82 276.36L535.23 276.36C 540.45 276.36 544.68 272.12 544.68 266.91L544.68 266.91L544.68 229.11C 544.68 223.89 540.45 219.66 535.23 219.66L535.23 219.66L332.82 219.66C 327.6 219.66 323.37 223.89 323.37 229.11z" stroke="#77933C" stroke-width="2" fill="none" /><g clip-path="url(#5)"><path transform="matrix(1 0 0 -1 0 540)" d="M87.844 213.3L96.348 207.63L96.348 207.63L87.844 201.96z" stroke="none" fill="#8064A2" fill-rule="evenodd" /></g><g clip-path="url(#6)"><path transform="matrix(1 0 0 -1 0 540)" d="M87.844 213.3L96.348 207.63L96.348 207.63L87.844 201.96z" stroke="#5C4776" stroke-width="2" fill="none" /></g></g></g></g></svg>