<svg xmlns="http://www.w3.org/2000/svg" xmlns:xlink="http://www.w3.org/1999/xlink" id="body_39" preserveAspectRatio="xMinYMin meet" viewBox="0 0 960 720"><defs><clipPath id="1"><path d="M0 540L0 0L0 0L720 0L720 0L720 540L720 540L0 540z" /></clipPath><clipPath id="2"><path d="M0 539.9999L720 539.9999L720 539.9999L720 -0.0001220703L720 -0.0001220703L0 -0.0001220703z" /></clipPath><clipPath id="3"><path d="M0 539.9998L720 539.9998L720 539.9998L720 -0.0001831055L720 -0.0001831055L0 -0.0001831055z" /></clipPath><clipPath id="4"><path d="M0 539.9998L720 539.9998L720 539.9998L720 -0.0002441406L720 -0.0002441406L0 -0.0002441406z" /></clipPath></defs><g transform="matrix(1.333333 0 0 1.333333 0 0)"><g><g clip-path="url(#1)"><g clip-path="url(#2)"><path transform="matrix(1 0 0 -1 0 540)" d="M0 6.104E-06L720 6.104E-06L720 6.104E-06L720 540L720 540L0 540z" stroke="none" fill="#FFFFFF" fill-rule="evenodd" /></g><g clip-path="url(#3)"><g transform="matrix(0.3035357 0 0 0.3035371 -0.02252 22.07697)"><g transform="matrix(1 0 0 1 0 0)"><image x="0" y="0" xlink:href="img_01.png" width="84" height="1620" /></g></g></g><g clip-path="url(#4)"><path transform="matrix(1 0 0 -1 0 540)" d="M0 -1.4172L22.677 -1.4172L22.677 -1.4172L22.677 540.0028L22.677 540.0028L0 540.0028z" stroke="none" fill="#9BBB59" fill-rule="evenodd" fill-opacity="0.6901961" /></g><path transform="matrix(1 0 0 -1 0 540)" d="M36.814 464.99L694.45 463.68" stroke="#98B954" stroke-width="3" fill="none" /><path transform="matrix(1 0 0 -1 0 540)" d="M89.762 368.33C 89.762 374.07 94.416 378.73 100.16 378.73L100.16 378.73L672.79 378.73C 678.53 378.73 683.19 374.07 683.19 368.33L683.19 368.33L683.19 326.76C 683.19 321.02 678.53 316.37 672.79 316.37L672.79 316.37L100.16 316.37C 94.416 316.37 89.762 321.02 89.762 326.76z" stroke="#4F6228" stroke-width="2" fill="none" /><path transform="matrix(1 0 0 -1 0 540)" d="M89.762 245.06C 89.762 250.8 94.416 255.45 100.16 255.45L100.16 255.45L672.79 255.45C 678.53 255.45 683.19 250.8 683.19 245.06L683.19 245.06L683.19 203.48C 683.19 197.74 678.53 193.09 672.79 193.09L672.79 193.09L100.16 193.09C 94.416 193.09 89.762 197.74 89.762 203.48z" stroke="#4F6228" stroke-width="2" fill="none" /><path transform="matrix(1 0 0 -1 0 540)" d="M89.762 120.37C 89.762 126.11 94.416 130.76 100.16 130.76L100.16 130.76L672.79 130.76C 678.53 130.76 683.19 126.11 683.19 120.37L683.19 120.37L683.19 78.795C 683.19 73.055 678.53 68.402 672.79 68.402L672.79 68.402L100.16 68.402C 94.416 68.402 89.762 73.055 89.762 78.795z" stroke="#4F6228" stroke-width="2" fill="none" /></g></g></g></svg>