<svg xmlns="http://www.w3.org/2000/svg" xmlns:xlink="http://www.w3.org/1999/xlink" id="body_53" preserveAspectRatio="xMinYMin meet" viewBox="0 0 960 720"><defs><clipPath id="1"><path d="M0 540L0 0L0 0L720 0L720 0L720 540L720 540L0 540z" /></clipPath><clipPath id="2"><path d="M0 539.9999L720 539.9999L720 539.9999L720 -0.0001220703L720 -0.0001220703L0 -0.0001220703z" /></clipPath><clipPath id="3"><path d="M0 539.9998L720 539.9998L720 539.9998L720 -0.0001831055L720 -0.0001831055L0 -0.0001831055z" /></clipPath><clipPath id="4"><path d="M0 539.9998L720 539.9998L720 539.9998L720 -0.0002441406L720 -0.0002441406L0 -0.0002441406z" /></clipPath><clipPath id="5"><path d="M-2.35E-07 539.9998L720 539.9998L720 539.9998L720 -0.0001831055L720 -0.0001831055L-2.35E-07 -0.0001831055z" /></clipPath><clipPath id="6"><path d="M-3.44E-07 0L720 0L720 0L720 539.9999L720 539.9999L-3.44E-07 539.9999" /></clipPath><clipPath id="7"><path d="M-3.44E-07 0L720 0L720 0L720 539.9999L720 539.9999L-3.44E-07 539.9999" /></clipPath></defs><g transform="matrix(1.333333 0 0 1.333333 0 0)"><g><g clip-path="url(#1)"><g clip-path="url(#2)"><path transform="matrix(1 0 0 -1 0 540)" d="M0 6.104E-06L720 6.104E-06L720 6.104E-06L720 540L720 540L0 540z" stroke="none" fill="#FFFFFF" fill-rule="evenodd" /></g><g clip-path="url(#3)"><g transform="matrix(0.3035357 0 0 0.3035371 -0.02252 22.07697)"><g transform="matrix(1 0 0 1 0 0)"><image x="0" y="0" xlink:href="img_01.png" width="84" height="1620" /></g></g></g><g clip-path="url(#4)"><path transform="matrix(1 0 0 -1 0 540)" d="M0 -1.4172L22.677 -1.4172L22.677 -1.4172L22.677 540.0028L22.677 540.0028L0 540.0028z" stroke="none" fill="#9BBB59" fill-rule="evenodd" fill-opacity="0.6901961" /></g><path transform="matrix(1 0 0 -1 0 540)" d="M36.814 464.99L694.45 463.68" stroke="#98B954" stroke-width="3" fill="none" /><g clip-path="url(#5)"><g transform="matrix(0.3274028 0 0 0.3252933 38.445 162.273)"><g transform="matrix(1 0 0 1 0 0)"><image x="0" y="0" xlink:href="img_03.png" width="72" height="75" /></g></g></g><path transform="matrix(1 0 0 -1 0 540)" d="M74.7 248.09C 74.7 257.06 81.973 264.33 90.945 264.33L90.945 264.33L625.38 264.33C 634.36 264.33 641.63 257.06 641.63 248.09L641.63 248.09L641.63 48.109C 641.63 39.138 634.36 31.865 625.38 31.865L625.38 31.865L90.945 31.865C 81.973 31.865 74.7 39.138 74.7 48.109z" stroke="#9BBB59" stroke-width="2.75" fill="none" /><g clip-path="url(#6)"><path transform="matrix(1 0 0 -1 0 540)" d="M83.335 256.44L91.839 250.78L91.839 250.78L83.335 245.11z" stroke="none" fill="#8064A2" fill-rule="evenodd" /></g><g clip-path="url(#7)"><path transform="matrix(1 0 0 -1 0 540)" d="M83.335 256.44L91.839 250.78L91.839 250.78L83.335 245.11z" stroke="#5C4776" stroke-width="2" fill="none" /></g><path transform="matrix(1 0 0 -1 0 540)" d="M115.92 355.05L148.08 355.05L148.08 355.05L148.08 355.77L148.08 355.77L115.92 355.77z" stroke="none" fill="#000000" fill-rule="evenodd" /><path transform="matrix(1 0 0 -1 0 540)" d="M164.16 355.05L196.2 355.05L196.2 355.05L196.2 355.77L196.2 355.77L164.16 355.77z" stroke="none" fill="#000000" fill-rule="evenodd" /><path transform="matrix(1 0 0 -1 0 540)" d="M212.16 355.05L244.2 355.05L244.2 355.05L244.2 355.77L244.2 355.77L212.16 355.77z" stroke="none" fill="#000000" fill-rule="evenodd" /><path transform="matrix(1 0 0 -1 0 540)" d="M165.72 329.85L197.88 329.85L197.88 329.85L197.88 330.57L197.88 330.57L165.72 330.57z" stroke="none" fill="#000000" fill-rule="evenodd" /><path transform="matrix(1 0 0 -1 0 540)" d="M213.96 329.85L246 329.85L246 329.85L246 330.57L246 330.57L213.96 330.57z" stroke="none" fill="#000000" fill-rule="evenodd" /><path transform="matrix(1 0 0 -1 0 540)" d="M166.56 310.65L198.72 310.65L198.72 310.65L198.72 311.37L198.72 311.37L166.56 311.37z" stroke="none" fill="#000000" fill-rule="evenodd" /><path transform="matrix(1 0 0 -1 0 540)" d="M214.8 310.65L246.96 310.65L246.96 310.65L246.96 311.37L246.96 311.37L214.8 311.37z" stroke="none" fill="#000000" fill-rule="evenodd" /><path transform="matrix(1 0 0 -1 0 540)" d="M302.16 288.45L334.2 288.45L334.2 288.45L334.2 289.17L334.2 289.17L302.16 289.17z" stroke="none" fill="#000000" fill-rule="evenodd" /><path transform="matrix(1 0 0 -1 0 540)" d="M350.16 288.45L382.2 288.45L382.2 288.45L382.2 289.17L382.2 289.17L350.16 289.17z" stroke="none" fill="#000000" fill-rule="evenodd" /><path transform="matrix(1 0 0 -1 0 540)" d="M398.16 288.45L430.2 288.45L430.2 288.45L430.2 289.17L430.2 289.17L398.16 289.17z" stroke="none" fill="#000000" fill-rule="evenodd" /></g></g></g></svg>